<svg xmlns="http://www.w3.org/2000/svg" xmlns:xlink="http://www.w3.org/1999/xlink" width="1196" zoomAndPan="magnify" viewBox="0 0 896.88 204.749996" height="273" preserveAspectRatio="xMidYMid meet" version="1.0"><defs><g/></defs><g fill="#000000" fill-opacity="1"><g transform="translate(6.050108, 188.368668)"><g><path d="M 11.28125 0 L 5.125 0 L 5.125 -45.4375 L 36.609375 -45.4375 L 36.609375 -40 L 11.28125 -40 L 11.28125 -26.09375 L 33.546875 -26.09375 L 33.546875 -20.65625 L 11.28125 -20.65625 Z M 11.28125 0 "/></g></g></g><g fill="#000000" fill-opacity="1"><g transform="translate(57.609869, 188.368668)"><g><path d="M 3.859375 -33.109375 L 9.421875 -33.109375 L 9.421875 -11.125 C 9.421875 -8.695312 9.972656 -6.878906 11.078125 -5.671875 C 12.179688 -4.460938 13.765625 -3.859375 15.828125 -3.859375 C 18.691406 -3.859375 20.925781 -4.875 22.53125 -6.90625 C 24.144531 -8.9375 24.953125 -11.59375 24.953125 -14.875 L 24.953125 -33.109375 L 30.515625 -33.109375 L 30.515625 0 L 25.25 0 L 25.25 -4.828125 L 25.140625 -4.953125 C 23.035156 -1.015625 19.53125 0.953125 14.625 0.953125 C 11.445312 0.953125 8.859375 0.0859375 6.859375 -1.640625 C 4.859375 -3.367188 3.859375 -5.925781 3.859375 -9.3125 Z M 3.859375 -33.109375 "/></g></g></g><g fill="#000000" fill-opacity="1"><g transform="translate(106.017952, 188.368668)"><g><path d="M 9.734375 0 L 4.171875 0 L 4.171875 -45.4375 L 9.734375 -45.4375 Z M 9.734375 0 "/></g></g></g><g fill="#000000" fill-opacity="1"><g transform="translate(133.692922, 188.368668)"><g><path d="M 9.734375 0 L 4.171875 0 L 4.171875 -45.4375 L 9.734375 -45.4375 Z M 9.734375 0 "/></g></g></g><g fill="#000000" fill-opacity="1"><g transform="translate(161.367893, 188.368668)"><g><path d="M 22.84375 -23.6875 C 22.757812 -25.65625 22.050781 -27.070312 20.71875 -27.9375 C 19.394531 -28.8125 17.488281 -29.25 15 -29.25 C 13.175781 -29.25 11.617188 -28.84375 10.328125 -28.03125 C 9.046875 -27.226562 8.40625 -26.078125 8.40625 -24.578125 C 8.40625 -23.378906 8.785156 -22.492188 9.546875 -21.921875 C 10.316406 -21.359375 11.96875 -20.757812 14.5 -20.125 L 20 -18.734375 C 23.34375 -17.890625 25.726562 -16.8125 27.15625 -15.5 C 28.59375 -14.195312 29.3125 -12.367188 29.3125 -10.015625 C 29.3125 -6.753906 28.117188 -4.109375 25.734375 -2.078125 C 23.359375 -0.0546875 20.179688 0.953125 16.203125 0.953125 C 11.566406 0.953125 8.054688 -0.0078125 5.671875 -1.9375 C 3.296875 -3.863281 2.085938 -6.765625 2.046875 -10.640625 L 7.421875 -10.640625 C 7.503906 -8.347656 8.257812 -6.644531 9.6875 -5.53125 C 11.125 -4.414062 13.273438 -3.859375 16.140625 -3.859375 C 18.460938 -3.859375 20.3125 -4.320312 21.6875 -5.25 C 23.0625 -6.175781 23.75 -7.46875 23.75 -9.125 C 23.75 -10.289062 23.300781 -11.222656 22.40625 -11.921875 C 21.519531 -12.628906 19.769531 -13.28125 17.15625 -13.875 L 10.703125 -15.453125 C 8.078125 -16.117188 6.140625 -17.101562 4.890625 -18.40625 C 3.648438 -19.71875 3.03125 -21.414062 3.03125 -23.5 C 3.03125 -26.75 4.191406 -29.320312 6.515625 -31.21875 C 8.847656 -33.113281 11.890625 -34.0625 15.640625 -34.0625 C 19.640625 -34.0625 22.707031 -33.085938 24.84375 -31.140625 C 26.976562 -29.191406 28.101562 -26.707031 28.21875 -23.6875 Z M 22.84375 -23.6875 "/></g></g></g><g fill="#000000" fill-opacity="1"><g transform="translate(206.74789, 188.368668)"><g><path d="M 10.875 -28.5 L 10.875 -6.953125 C 10.875 -6.109375 11.101562 -5.460938 11.5625 -5.015625 C 12.03125 -4.578125 12.863281 -4.359375 14.0625 -4.359375 L 16.203125 -4.359375 L 16.203125 0 C 14.179688 0.289062 12.789062 0.4375 12.03125 0.4375 C 9.695312 0.4375 7.992188 -0.117188 6.921875 -1.234375 C 5.847656 -2.347656 5.3125 -4.148438 5.3125 -6.640625 L 5.3125 -28.5 L 0.828125 -28.5 L 0.828125 -33.109375 L 5.3125 -33.109375 L 5.3125 -42.359375 L 10.875 -42.359375 L 10.875 -33.109375 L 16.203125 -33.109375 L 16.203125 -28.5 Z M 10.875 -28.5 "/></g></g></g><g fill="#000000" fill-opacity="1"><g transform="translate(238.007123, 188.368668)"><g><path d="M 24.296875 -16.90625 C 23.890625 -16.476562 23.082031 -16.128906 21.875 -15.859375 C 20.664062 -15.585938 18.410156 -15.238281 15.109375 -14.8125 C 12.679688 -14.519531 10.894531 -13.921875 9.75 -13.015625 C 8.601562 -12.109375 8.03125 -10.910156 8.03125 -9.421875 C 8.03125 -7.609375 8.515625 -6.195312 9.484375 -5.1875 C 10.453125 -4.175781 12 -3.671875 14.125 -3.671875 C 16.78125 -3.671875 19.140625 -4.425781 21.203125 -5.9375 C 23.265625 -7.457031 24.296875 -9.300781 24.296875 -11.46875 Z M 3.921875 -23.03125 C 4.046875 -26.757812 5.253906 -29.53125 7.546875 -31.34375 C 9.847656 -33.15625 13.195312 -34.0625 17.59375 -34.0625 C 21.09375 -34.0625 24.023438 -33.269531 26.390625 -31.6875 C 28.765625 -30.101562 29.953125 -27.816406 29.953125 -24.828125 L 29.953125 -5.75 C 29.953125 -4.445312 30.539062 -3.796875 31.71875 -3.796875 C 32.1875 -3.796875 32.796875 -3.878906 33.546875 -4.046875 L 33.546875 0 C 32.535156 0.414062 31.484375 0.625 30.390625 0.625 C 28.492188 0.625 27.082031 0.21875 26.15625 -0.59375 C 25.226562 -1.414062 24.742188 -2.691406 24.703125 -4.421875 C 21.523438 -0.835938 17.535156 0.953125 12.734375 0.953125 C 9.597656 0.953125 7.082031 0.0664062 5.1875 -1.703125 C 3.289062 -3.472656 2.34375 -5.78125 2.34375 -8.625 C 2.34375 -11.53125 3.164062 -13.878906 4.8125 -15.671875 C 6.46875 -17.460938 8.875 -18.546875 12.03125 -18.921875 L 21.859375 -20.125 C 23.628906 -20.394531 24.515625 -21.703125 24.515625 -24.046875 C 24.515625 -25.773438 23.867188 -27.101562 22.578125 -28.03125 C 21.296875 -28.96875 19.34375 -29.4375 16.71875 -29.4375 C 14.394531 -29.4375 12.609375 -28.921875 11.359375 -27.890625 C 10.109375 -26.859375 9.363281 -25.238281 9.125 -23.03125 Z M 3.921875 -23.03125 "/></g></g></g><g fill="#000000" fill-opacity="1"><g transform="translate(286.507903, 188.368668)"><g><path d="M 25.078125 -21.984375 C 24.265625 -26.703125 21.644531 -29.0625 17.21875 -29.0625 C 14.476562 -29.0625 12.269531 -27.960938 10.59375 -25.765625 C 8.925781 -23.566406 8.09375 -20.507812 8.09375 -16.59375 C 8.09375 -12.332031 8.863281 -9.144531 10.40625 -7.03125 C 11.957031 -4.914062 14.207031 -3.859375 17.15625 -3.859375 C 19.132812 -3.859375 20.84375 -4.582031 22.28125 -6.03125 C 23.726562 -7.488281 24.660156 -9.382812 25.078125 -11.71875 L 30.453125 -11.71875 C 29.890625 -7.613281 28.4375 -4.472656 26.09375 -2.296875 C 23.757812 -0.128906 20.738281 0.953125 17.03125 0.953125 C 12.6875 0.953125 9.117188 -0.53125 6.328125 -3.5 C 3.546875 -6.476562 2.15625 -10.523438 2.15625 -15.640625 C 2.15625 -21.242188 3.546875 -25.710938 6.328125 -29.046875 C 9.117188 -32.390625 13.023438 -34.0625 18.046875 -34.0625 C 21.722656 -34.0625 24.644531 -32.960938 26.8125 -30.765625 C 28.988281 -28.578125 30.203125 -25.648438 30.453125 -21.984375 Z M 25.078125 -21.984375 "/></g></g></g><g fill="#000000" fill-opacity="1"><g transform="translate(332.691269, 188.368668)"><g><path d="M 31.65625 0 L 24.515625 0 L 14.1875 -16.71875 L 9.546875 -12.546875 L 9.546875 0 L 4.171875 0 L 4.171875 -45.4375 L 9.546875 -45.4375 L 9.546875 -19.109375 L 23.796875 -33.109375 L 30.890625 -33.109375 L 18.234375 -20.78125 Z M 31.65625 0 "/></g></g></g><g fill="#000000" fill-opacity="1"><g transform="translate(378.071288, 188.368668)"><g/></g></g><g fill="#000000" fill-opacity="1"><g transform="translate(407.260279, 188.368668)"><g><path d="M 11.28125 -5.25 L 23.1875 -5.25 C 27.3125 -5.25 30.535156 -6.832031 32.859375 -10 C 35.191406 -13.164062 36.359375 -17.488281 36.359375 -22.96875 C 36.359375 -28.382812 35.179688 -32.597656 32.828125 -35.609375 C 30.484375 -38.617188 27.09375 -40.144531 22.65625 -40.1875 L 11.28125 -40.1875 Z M 5.125 -45.4375 L 23.5625 -45.4375 C 29.507812 -45.4375 34.164062 -43.390625 37.53125 -39.296875 C 40.90625 -35.210938 42.59375 -29.90625 42.59375 -23.375 C 42.59375 -16.363281 40.90625 -10.710938 37.53125 -6.421875 C 34.164062 -2.140625 29.425781 0 23.3125 0 L 5.125 0 Z M 5.125 -45.4375 "/></g></g></g><g fill="#000000" fill-opacity="1"><g transform="translate(466.575626, 188.368668)"><g><path d="M 26.890625 -19.203125 C 26.609375 -22.785156 25.660156 -25.320312 24.046875 -26.8125 C 22.441406 -28.3125 20.3125 -29.0625 17.65625 -29.0625 C 14.957031 -29.0625 12.773438 -28.113281 11.109375 -26.21875 C 9.453125 -24.320312 8.570312 -21.984375 8.46875 -19.203125 Z M 32.21875 -10.390625 C 31.59375 -6.960938 29.910156 -4.128906 27.171875 -1.890625 C 24.765625 0.00390625 21.59375 0.972656 17.65625 1.015625 C 13.019531 0.972656 9.335938 -0.539062 6.609375 -3.53125 C 3.890625 -6.53125 2.53125 -10.566406 2.53125 -15.640625 C 2.53125 -21.453125 3.929688 -25.972656 6.734375 -29.203125 C 9.535156 -32.441406 13.429688 -34.0625 18.421875 -34.0625 C 22.898438 -34.0625 26.394531 -32.390625 28.90625 -29.046875 C 31.414062 -25.710938 32.671875 -20.945312 32.671875 -14.75 L 8.46875 -14.75 C 8.46875 -11.28125 9.269531 -8.597656 10.875 -6.703125 C 12.488281 -4.804688 14.898438 -3.859375 18.109375 -3.859375 C 20.378906 -3.859375 22.328125 -4.539062 23.953125 -5.90625 C 25.585938 -7.28125 26.484375 -8.773438 26.640625 -10.390625 Z M 32.21875 -10.390625 "/></g></g></g><g fill="#000000" fill-opacity="1"><g transform="translate(515.385413, 188.368668)"><g><path d="M 24.953125 -33.109375 L 31.03125 -33.109375 L 18.421875 0 L 12.453125 0 L 0.375 -33.109375 L 6.828125 -33.109375 L 15.453125 -6.15625 L 15.578125 -6.15625 Z M 24.953125 -33.109375 "/></g></g></g><g fill="#000000" fill-opacity="1"><g transform="translate(560.518241, 188.368668)"><g><path d="M 26.890625 -19.203125 C 26.609375 -22.785156 25.660156 -25.320312 24.046875 -26.8125 C 22.441406 -28.3125 20.3125 -29.0625 17.65625 -29.0625 C 14.957031 -29.0625 12.773438 -28.113281 11.109375 -26.21875 C 9.453125 -24.320312 8.570312 -21.984375 8.46875 -19.203125 Z M 32.21875 -10.390625 C 31.59375 -6.960938 29.910156 -4.128906 27.171875 -1.890625 C 24.765625 0.00390625 21.59375 0.972656 17.65625 1.015625 C 13.019531 0.972656 9.335938 -0.539062 6.609375 -3.53125 C 3.890625 -6.53125 2.53125 -10.566406 2.53125 -15.640625 C 2.53125 -21.453125 3.929688 -25.972656 6.734375 -29.203125 C 9.535156 -32.441406 13.429688 -34.0625 18.421875 -34.0625 C 22.898438 -34.0625 26.394531 -32.390625 28.90625 -29.046875 C 31.414062 -25.710938 32.671875 -20.945312 32.671875 -14.75 L 8.46875 -14.75 C 8.46875 -11.28125 9.269531 -8.597656 10.875 -6.703125 C 12.488281 -4.804688 14.898438 -3.859375 18.109375 -3.859375 C 20.378906 -3.859375 22.328125 -4.539062 23.953125 -5.90625 C 25.585938 -7.28125 26.484375 -8.773438 26.640625 -10.390625 Z M 32.21875 -10.390625 "/></g></g></g><g fill="#000000" fill-opacity="1"><g transform="translate(609.328028, 188.368668)"><g><path d="M 9.734375 0 L 4.171875 0 L 4.171875 -45.4375 L 9.734375 -45.4375 Z M 9.734375 0 "/></g></g></g><g fill="#000000" fill-opacity="1"><g transform="translate(637.002977, 188.368668)"><g><path d="M 8.03125 -16.59375 C 8.03125 -12.90625 8.863281 -9.867188 10.53125 -7.484375 C 12.207031 -5.109375 14.582031 -3.921875 17.65625 -3.921875 C 20.820312 -3.921875 23.226562 -5.164062 24.875 -7.65625 C 26.53125 -10.15625 27.359375 -13.132812 27.359375 -16.59375 C 27.359375 -20.101562 26.53125 -23.078125 24.875 -25.515625 C 23.226562 -27.960938 20.820312 -29.1875 17.65625 -29.1875 C 14.707031 -29.1875 12.363281 -28.035156 10.625 -25.734375 C 8.894531 -23.441406 8.03125 -20.394531 8.03125 -16.59375 Z M 2.34375 -16.59375 C 2.34375 -21.519531 3.710938 -25.660156 6.453125 -29.015625 C 9.203125 -32.378906 12.9375 -34.0625 17.65625 -34.0625 C 22.476562 -34.0625 26.25 -32.359375 28.96875 -28.953125 C 31.6875 -25.554688 33.046875 -21.4375 33.046875 -16.59375 C 33.046875 -11.738281 31.695312 -7.597656 29 -4.171875 C 26.300781 -0.753906 22.519531 0.953125 17.65625 0.953125 C 12.976562 0.953125 9.253906 -0.703125 6.484375 -4.015625 C 3.722656 -7.335938 2.34375 -11.53125 2.34375 -16.59375 Z M 2.34375 -16.59375 "/></g></g></g><g fill="#000000" fill-opacity="1"><g transform="translate(686.12171, 188.368668)"><g><path d="M 9.484375 -15 C 9.484375 -11.445312 10.347656 -8.703125 12.078125 -6.765625 C 13.816406 -4.828125 15.972656 -3.859375 18.546875 -3.859375 C 21.367188 -3.859375 23.5625 -5.007812 25.125 -7.3125 C 26.695312 -9.613281 27.484375 -12.726562 27.484375 -16.65625 C 27.484375 -20.96875 26.726562 -24.113281 25.21875 -26.09375 C 23.71875 -28.070312 21.453125 -29.0625 18.421875 -29.0625 C 15.472656 -29.0625 13.242188 -27.898438 11.734375 -25.578125 C 10.234375 -23.265625 9.484375 -19.738281 9.484375 -15 Z M 4.171875 -33.109375 L 9.421875 -33.109375 L 9.421875 -28.4375 L 9.546875 -28.4375 C 11.921875 -32.1875 15.21875 -34.0625 19.4375 -34.0625 C 23.707031 -34.0625 27.070312 -32.507812 29.53125 -29.40625 C 32 -26.3125 33.234375 -22.351562 33.234375 -17.53125 C 33.234375 -12.125 31.972656 -7.691406 29.453125 -4.234375 C 26.941406 -0.773438 23.347656 0.953125 18.671875 0.953125 C 14.835938 0.953125 11.898438 -0.53125 9.859375 -3.5 L 9.734375 -3.5 L 9.734375 13.109375 L 4.171875 13.109375 Z M 4.171875 -33.109375 "/></g></g></g><g fill="#000000" fill-opacity="1"><g transform="translate(735.611272, 188.368668)"><g><path d="M 26.890625 -19.203125 C 26.609375 -22.785156 25.660156 -25.320312 24.046875 -26.8125 C 22.441406 -28.3125 20.3125 -29.0625 17.65625 -29.0625 C 14.957031 -29.0625 12.773438 -28.113281 11.109375 -26.21875 C 9.453125 -24.320312 8.570312 -21.984375 8.46875 -19.203125 Z M 32.21875 -10.390625 C 31.59375 -6.960938 29.910156 -4.128906 27.171875 -1.890625 C 24.765625 0.00390625 21.59375 0.972656 17.65625 1.015625 C 13.019531 0.972656 9.335938 -0.539062 6.609375 -3.53125 C 3.890625 -6.53125 2.53125 -10.566406 2.53125 -15.640625 C 2.53125 -21.453125 3.929688 -25.972656 6.734375 -29.203125 C 9.535156 -32.441406 13.429688 -34.0625 18.421875 -34.0625 C 22.898438 -34.0625 26.394531 -32.390625 28.90625 -29.046875 C 31.414062 -25.710938 32.671875 -20.945312 32.671875 -14.75 L 8.46875 -14.75 C 8.46875 -11.28125 9.269531 -8.597656 10.875 -6.703125 C 12.488281 -4.804688 14.898438 -3.859375 18.109375 -3.859375 C 20.378906 -3.859375 22.328125 -4.539062 23.953125 -5.90625 C 25.585938 -7.28125 26.484375 -8.773438 26.640625 -10.390625 Z M 32.21875 -10.390625 "/></g></g></g><g fill="#000000" fill-opacity="1"><g transform="translate(784.421059, 188.368668)"><g><path d="M 9.734375 0 L 4.171875 0 L 4.171875 -33.109375 L 9.421875 -33.109375 L 9.421875 -27.609375 L 9.546875 -27.609375 C 11.960938 -31.910156 15.066406 -34.0625 18.859375 -34.0625 C 19.453125 -34.0625 19.9375 -34 20.3125 -33.875 L 20.3125 -28.09375 L 18.234375 -28.09375 C 15.742188 -28.09375 13.703125 -27.25 12.109375 -25.5625 C 10.523438 -23.875 9.734375 -21.773438 9.734375 -19.265625 Z M 9.734375 0 "/></g></g></g><g fill="#000000" fill-opacity="1"><g transform="translate(0.486961, 91.493454)"><g><path d="M 54.703125 -65.421875 C 54.453125 -63.078125 54.28125 -60.8125 54.1875 -58.625 C 54.101562 -56.4375 54.0625 -54.757812 54.0625 -53.59375 C 54.0625 -52.113281 54.09375 -50.726562 54.15625 -49.4375 C 54.21875 -48.144531 54.273438 -47.003906 54.328125 -46.015625 L 52.203125 -46.015625 C 51.773438 -50.328125 51.191406 -53.726562 50.453125 -56.21875 C 49.710938 -58.71875 48.414062 -60.519531 46.5625 -61.625 C 44.71875 -62.738281 41.859375 -63.296875 37.984375 -63.296875 L 32.984375 -63.296875 L 32.984375 -10.71875 C 32.984375 -8.25 33.210938 -6.398438 33.671875 -5.171875 C 34.140625 -3.941406 35.050781 -3.109375 36.40625 -2.671875 C 37.757812 -2.242188 39.734375 -1.96875 42.328125 -1.84375 L 42.328125 0 C 40.722656 -0.125 38.6875 -0.203125 36.21875 -0.234375 C 33.757812 -0.265625 31.265625 -0.28125 28.734375 -0.28125 C 25.960938 -0.28125 23.359375 -0.265625 20.921875 -0.234375 C 18.492188 -0.203125 16.539062 -0.125 15.0625 0 L 15.0625 -1.84375 C 17.644531 -1.96875 19.613281 -2.242188 20.96875 -2.671875 C 22.332031 -3.109375 23.242188 -3.941406 23.703125 -5.171875 C 24.160156 -6.398438 24.390625 -8.25 24.390625 -10.71875 L 24.390625 -63.296875 L 19.40625 -63.296875 C 15.582031 -63.296875 12.734375 -62.738281 10.859375 -61.625 C 8.984375 -60.519531 7.675781 -58.71875 6.9375 -56.21875 C 6.195312 -53.726562 5.609375 -50.328125 5.171875 -46.015625 L 3.046875 -46.015625 C 3.171875 -47.003906 3.25 -48.144531 3.28125 -49.4375 C 3.3125 -50.726562 3.328125 -52.113281 3.328125 -53.59375 C 3.328125 -54.757812 3.28125 -56.4375 3.1875 -58.625 C 3.09375 -60.8125 2.925781 -63.078125 2.6875 -65.421875 C 5.269531 -65.359375 8.082031 -65.296875 11.125 -65.234375 C 14.175781 -65.171875 17.242188 -65.140625 20.328125 -65.140625 C 23.410156 -65.140625 26.210938 -65.140625 28.734375 -65.140625 C 31.265625 -65.140625 34.050781 -65.140625 37.09375 -65.140625 C 40.144531 -65.140625 43.210938 -65.171875 46.296875 -65.234375 C 49.378906 -65.296875 52.179688 -65.359375 54.703125 -65.421875 Z M 54.703125 -65.421875 "/></g></g></g><g fill="#000000" fill-opacity="1"><g transform="translate(72.65293, 91.493454)"><g><path d="M 15.796875 0.640625 C 13.273438 0.640625 11.085938 0.164062 9.234375 -0.78125 C 7.390625 -1.738281 5.988281 -3.078125 5.03125 -4.796875 C 4.082031 -6.523438 3.609375 -8.53125 3.609375 -10.8125 C 3.609375 -13.519531 4.238281 -15.734375 5.5 -17.453125 C 6.757812 -19.179688 8.375 -20.566406 10.34375 -21.609375 C 12.320312 -22.660156 14.40625 -23.539062 16.59375 -24.25 C 18.78125 -24.957031 20.859375 -25.632812 22.828125 -26.28125 C 24.796875 -26.9375 26.410156 -27.691406 27.671875 -28.546875 C 28.929688 -29.410156 29.5625 -30.550781 29.5625 -31.96875 L 29.5625 -37.703125 C 29.5625 -40.285156 29.175781 -42.253906 28.40625 -43.609375 C 27.644531 -44.972656 26.613281 -45.882812 25.3125 -46.34375 C 24.019531 -46.800781 22.570312 -47.03125 20.96875 -47.03125 C 19.4375 -47.03125 17.789062 -46.8125 16.03125 -46.375 C 14.28125 -45.945312 12.878906 -45.054688 11.828125 -43.703125 C 12.992188 -43.460938 14.007812 -42.847656 14.875 -41.859375 C 15.738281 -40.867188 16.171875 -39.609375 16.171875 -38.078125 C 16.171875 -36.535156 15.675781 -35.316406 14.6875 -34.421875 C 13.707031 -33.523438 12.445312 -33.078125 10.90625 -33.078125 C 9.113281 -33.078125 7.800781 -33.644531 6.96875 -34.78125 C 6.144531 -35.925781 5.734375 -37.207031 5.734375 -38.625 C 5.734375 -40.226562 6.128906 -41.519531 6.921875 -42.5 C 7.722656 -43.488281 8.742188 -44.414062 9.984375 -45.28125 C 11.398438 -46.257812 13.226562 -47.101562 15.46875 -47.8125 C 17.71875 -48.53125 20.265625 -48.890625 23.109375 -48.890625 C 25.628906 -48.890625 27.78125 -48.59375 29.5625 -48 C 31.351562 -47.414062 32.832031 -46.570312 34 -45.46875 C 35.601562 -43.988281 36.648438 -42.1875 37.140625 -40.0625 C 37.640625 -37.9375 37.890625 -35.394531 37.890625 -32.4375 L 37.890625 -6.75 C 37.890625 -5.207031 38.117188 -4.097656 38.578125 -3.421875 C 39.035156 -2.742188 39.757812 -2.40625 40.75 -2.40625 C 41.425781 -2.40625 42.070312 -2.554688 42.6875 -2.859375 C 43.300781 -3.171875 44.039062 -3.664062 44.90625 -4.34375 L 45.921875 -2.765625 C 44.628906 -1.785156 43.394531 -0.972656 42.21875 -0.328125 C 41.050781 0.316406 39.484375 0.640625 37.515625 0.640625 C 35.734375 0.640625 34.253906 0.332031 33.078125 -0.28125 C 31.910156 -0.894531 31.03125 -1.800781 30.4375 -3 C 29.851562 -4.207031 29.5625 -5.734375 29.5625 -7.578125 C 27.90625 -4.804688 25.921875 -2.742188 23.609375 -1.390625 C 21.296875 -0.0351562 18.691406 0.640625 15.796875 0.640625 Z M 19.125 -3.046875 C 21.15625 -3.046875 23.046875 -3.628906 24.796875 -4.796875 C 26.554688 -5.972656 28.144531 -7.734375 29.5625 -10.078125 L 29.5625 -28.1875 C 28.832031 -27.132812 27.753906 -26.253906 26.328125 -25.546875 C 24.910156 -24.835938 23.367188 -24.128906 21.703125 -23.421875 C 20.046875 -22.710938 18.460938 -21.878906 16.953125 -20.921875 C 15.441406 -19.972656 14.191406 -18.726562 13.203125 -17.1875 C 12.222656 -15.644531 11.734375 -13.644531 11.734375 -11.1875 C 11.734375 -8.71875 12.394531 -6.742188 13.71875 -5.265625 C 15.039062 -3.785156 16.84375 -3.046875 19.125 -3.046875 Z M 19.125 -3.046875 "/></g></g></g><g fill="#000000" fill-opacity="1"><g transform="translate(133.453648, 91.493454)"><g><path d="M 31.421875 -48.890625 C 33.078125 -48.890625 34.535156 -48.546875 35.796875 -47.859375 C 37.066406 -47.179688 38.054688 -46.300781 38.765625 -45.21875 C 39.472656 -44.144531 39.828125 -42.929688 39.828125 -41.578125 C 39.828125 -40.035156 39.347656 -38.679688 38.390625 -37.515625 C 37.441406 -36.347656 36.164062 -35.765625 34.5625 -35.765625 C 33.269531 -35.765625 32.128906 -36.175781 31.140625 -37 C 30.148438 -37.832031 29.65625 -39.019531 29.65625 -40.5625 C 29.65625 -41.738281 29.976562 -42.738281 30.625 -43.5625 C 31.28125 -44.394531 32.003906 -45.0625 32.796875 -45.5625 C 32.367188 -46.175781 31.722656 -46.484375 30.859375 -46.484375 C 28.953125 -46.484375 27.195312 -45.910156 25.59375 -44.765625 C 23.988281 -43.628906 22.632812 -42.164062 21.53125 -40.375 C 20.425781 -38.59375 19.5625 -36.703125 18.9375 -34.703125 C 18.320312 -32.703125 18.015625 -30.835938 18.015625 -29.109375 L 18.015625 -9.515625 C 18.015625 -6.492188 18.890625 -4.472656 20.640625 -3.453125 C 22.398438 -2.441406 24.789062 -1.9375 27.8125 -1.9375 L 27.8125 0 C 26.394531 -0.0625 24.390625 -0.140625 21.796875 -0.234375 C 19.210938 -0.328125 16.472656 -0.375 13.578125 -0.375 C 11.484375 -0.375 9.40625 -0.328125 7.34375 -0.234375 C 5.28125 -0.140625 3.726562 -0.0625 2.6875 0 L 2.6875 -1.9375 C 5.207031 -1.9375 7.003906 -2.398438 8.078125 -3.328125 C 9.160156 -4.253906 9.703125 -6.007812 9.703125 -8.59375 L 9.703125 -37.515625 C 9.703125 -40.285156 9.207031 -42.332031 8.21875 -43.65625 C 7.238281 -44.988281 5.394531 -45.65625 2.6875 -45.65625 L 2.6875 -47.59375 C 4.65625 -47.40625 6.5625 -47.3125 8.40625 -47.3125 C 10.195312 -47.3125 11.90625 -47.414062 13.53125 -47.625 C 15.164062 -47.84375 16.660156 -48.171875 18.015625 -48.609375 L 18.015625 -37.0625 C 18.691406 -38.84375 19.660156 -40.640625 20.921875 -42.453125 C 22.191406 -44.273438 23.71875 -45.800781 25.5 -47.03125 C 27.289062 -48.269531 29.265625 -48.890625 31.421875 -48.890625 Z M 31.421875 -48.890625 "/></g></g></g><g fill="#000000" fill-opacity="1"><g transform="translate(189.357115, 91.493454)"><g><path d="M 15.796875 0.640625 C 13.273438 0.640625 11.085938 0.164062 9.234375 -0.78125 C 7.390625 -1.738281 5.988281 -3.078125 5.03125 -4.796875 C 4.082031 -6.523438 3.609375 -8.53125 3.609375 -10.8125 C 3.609375 -13.519531 4.238281 -15.734375 5.5 -17.453125 C 6.757812 -19.179688 8.375 -20.566406 10.34375 -21.609375 C 12.320312 -22.660156 14.40625 -23.539062 16.59375 -24.25 C 18.78125 -24.957031 20.859375 -25.632812 22.828125 -26.28125 C 24.796875 -26.9375 26.410156 -27.691406 27.671875 -28.546875 C 28.929688 -29.410156 29.5625 -30.550781 29.5625 -31.96875 L 29.5625 -37.703125 C 29.5625 -40.285156 29.175781 -42.253906 28.40625 -43.609375 C 27.644531 -44.972656 26.613281 -45.882812 25.3125 -46.34375 C 24.019531 -46.800781 22.570312 -47.03125 20.96875 -47.03125 C 19.4375 -47.03125 17.789062 -46.8125 16.03125 -46.375 C 14.28125 -45.945312 12.878906 -45.054688 11.828125 -43.703125 C 12.992188 -43.460938 14.007812 -42.847656 14.875 -41.859375 C 15.738281 -40.867188 16.171875 -39.609375 16.171875 -38.078125 C 16.171875 -36.535156 15.675781 -35.316406 14.6875 -34.421875 C 13.707031 -33.523438 12.445312 -33.078125 10.90625 -33.078125 C 9.113281 -33.078125 7.800781 -33.644531 6.96875 -34.78125 C 6.144531 -35.925781 5.734375 -37.207031 5.734375 -38.625 C 5.734375 -40.226562 6.128906 -41.519531 6.921875 -42.5 C 7.722656 -43.488281 8.742188 -44.414062 9.984375 -45.28125 C 11.398438 -46.257812 13.226562 -47.101562 15.46875 -47.8125 C 17.71875 -48.53125 20.265625 -48.890625 23.109375 -48.890625 C 25.628906 -48.890625 27.78125 -48.59375 29.5625 -48 C 31.351562 -47.414062 32.832031 -46.570312 34 -45.46875 C 35.601562 -43.988281 36.648438 -42.1875 37.140625 -40.0625 C 37.640625 -37.9375 37.890625 -35.394531 37.890625 -32.4375 L 37.890625 -6.75 C 37.890625 -5.207031 38.117188 -4.097656 38.578125 -3.421875 C 39.035156 -2.742188 39.757812 -2.40625 40.75 -2.40625 C 41.425781 -2.40625 42.070312 -2.554688 42.6875 -2.859375 C 43.300781 -3.171875 44.039062 -3.664062 44.90625 -4.34375 L 45.921875 -2.765625 C 44.628906 -1.785156 43.394531 -0.972656 42.21875 -0.328125 C 41.050781 0.316406 39.484375 0.640625 37.515625 0.640625 C 35.734375 0.640625 34.253906 0.332031 33.078125 -0.28125 C 31.910156 -0.894531 31.03125 -1.800781 30.4375 -3 C 29.851562 -4.207031 29.5625 -5.734375 29.5625 -7.578125 C 27.90625 -4.804688 25.921875 -2.742188 23.609375 -1.390625 C 21.296875 -0.0351562 18.691406 0.640625 15.796875 0.640625 Z M 19.125 -3.046875 C 21.15625 -3.046875 23.046875 -3.628906 24.796875 -4.796875 C 26.554688 -5.972656 28.144531 -7.734375 29.5625 -10.078125 L 29.5625 -28.1875 C 28.832031 -27.132812 27.753906 -26.253906 26.328125 -25.546875 C 24.910156 -24.835938 23.367188 -24.128906 21.703125 -23.421875 C 20.046875 -22.710938 18.460938 -21.878906 16.953125 -20.921875 C 15.441406 -19.972656 14.191406 -18.726562 13.203125 -17.1875 C 12.222656 -15.644531 11.734375 -13.644531 11.734375 -11.1875 C 11.734375 -8.71875 12.394531 -6.742188 13.71875 -5.265625 C 15.039062 -3.785156 16.84375 -3.046875 19.125 -3.046875 Z M 19.125 -3.046875 "/></g></g></g><g fill="#000000" fill-opacity="1"><g transform="translate(250.157833, 91.493454)"><g><path d="M 33.734375 -48.890625 C 36.066406 -48.890625 38.019531 -48.578125 39.59375 -47.953125 C 41.164062 -47.335938 42.472656 -46.476562 43.515625 -45.375 C 44.691406 -44.132812 45.523438 -42.59375 46.015625 -40.75 C 46.503906 -38.90625 46.75 -36.410156 46.75 -33.265625 L 46.75 -8.59375 C 46.75 -6.007812 47.285156 -4.253906 48.359375 -3.328125 C 49.441406 -2.398438 51.25 -1.9375 53.78125 -1.9375 L 53.78125 0 C 52.726562 -0.0625 51.125 -0.140625 48.96875 -0.234375 C 46.8125 -0.328125 44.71875 -0.375 42.6875 -0.375 C 40.65625 -0.375 38.671875 -0.328125 36.734375 -0.234375 C 34.796875 -0.140625 33.332031 -0.0625 32.34375 0 L 32.34375 -1.9375 C 34.5625 -1.9375 36.128906 -2.398438 37.046875 -3.328125 C 37.972656 -4.253906 38.4375 -6.007812 38.4375 -8.59375 L 38.4375 -35.296875 C 38.4375 -37.203125 38.28125 -38.957031 37.96875 -40.5625 C 37.664062 -42.164062 36.972656 -43.457031 35.890625 -44.4375 C 34.816406 -45.425781 33.171875 -45.921875 30.953125 -45.921875 C 28.367188 -45.921875 26.101562 -45.179688 24.15625 -43.703125 C 22.21875 -42.222656 20.707031 -40.207031 19.625 -37.65625 C 18.550781 -35.101562 18.015625 -32.253906 18.015625 -29.109375 L 18.015625 -8.59375 C 18.015625 -6.007812 18.476562 -4.253906 19.40625 -3.328125 C 20.332031 -2.398438 21.90625 -1.9375 24.125 -1.9375 L 24.125 0 C 23.132812 -0.0625 21.664062 -0.140625 19.71875 -0.234375 C 17.78125 -0.328125 15.796875 -0.375 13.765625 -0.375 C 11.734375 -0.375 9.640625 -0.328125 7.484375 -0.234375 C 5.328125 -0.140625 3.726562 -0.0625 2.6875 0 L 2.6875 -1.9375 C 5.207031 -1.9375 7.003906 -2.398438 8.078125 -3.328125 C 9.160156 -4.253906 9.703125 -6.007812 9.703125 -8.59375 L 9.703125 -37.515625 C 9.703125 -40.285156 9.207031 -42.332031 8.21875 -43.65625 C 7.238281 -44.988281 5.394531 -45.65625 2.6875 -45.65625 L 2.6875 -47.59375 C 4.65625 -47.40625 6.5625 -47.3125 8.40625 -47.3125 C 10.195312 -47.3125 11.90625 -47.414062 13.53125 -47.625 C 15.164062 -47.84375 16.660156 -48.171875 18.015625 -48.609375 L 18.015625 -37.703125 C 19.617188 -41.890625 21.851562 -44.800781 24.71875 -46.4375 C 27.582031 -48.070312 30.585938 -48.890625 33.734375 -48.890625 Z M 33.734375 -48.890625 "/></g></g></g><g fill="#000000" fill-opacity="1"><g transform="translate(320.106218, 91.493454)"><g><path d="M 44.90625 -47.59375 L 44.90625 -45.734375 C 43.738281 -45.617188 42.660156 -45.097656 41.671875 -44.171875 C 40.691406 -43.242188 39.769531 -41.609375 38.90625 -39.265625 L 23.75 0.46875 C 23.5 0.46875 23.25 0.46875 23 0.46875 C 22.757812 0.46875 22.484375 0.46875 22.171875 0.46875 L 5.171875 -40.46875 C 4.191406 -42.875 3.222656 -44.335938 2.265625 -44.859375 C 1.304688 -45.390625 0.488281 -45.65625 -0.1875 -45.65625 L -0.1875 -47.59375 C 1.039062 -47.53125 2.316406 -47.453125 3.640625 -47.359375 C 4.972656 -47.265625 6.410156 -47.21875 7.953125 -47.21875 C 9.859375 -47.21875 11.875 -47.25 14 -47.3125 C 16.125 -47.375 18.109375 -47.46875 19.953125 -47.59375 L 19.953125 -45.65625 C 18.421875 -45.65625 17.050781 -45.546875 15.84375 -45.328125 C 14.644531 -45.109375 13.875 -44.503906 13.53125 -43.515625 C 13.195312 -42.535156 13.492188 -40.84375 14.421875 -38.4375 L 25.96875 -9.890625 L 25.40625 -9.421875 L 35.953125 -37.0625 C 36.742188 -39.09375 37.0625 -40.707031 36.90625 -41.90625 C 36.757812 -43.101562 36.144531 -44.007812 35.0625 -44.625 C 33.988281 -45.25 32.34375 -45.617188 30.125 -45.734375 L 30.125 -47.59375 C 31.226562 -47.53125 32.179688 -47.484375 32.984375 -47.453125 C 33.785156 -47.421875 34.570312 -47.390625 35.34375 -47.359375 C 36.113281 -47.328125 36.960938 -47.3125 37.890625 -47.3125 C 39.304688 -47.3125 40.582031 -47.34375 41.71875 -47.40625 C 42.863281 -47.46875 43.925781 -47.53125 44.90625 -47.59375 Z M 44.90625 -47.59375 "/></g></g></g><g fill="#000000" fill-opacity="1"><g transform="translate(380.075299, 91.493454)"><g><path d="M 25.140625 -48.890625 C 30.554688 -48.890625 34.789062 -47.238281 37.84375 -43.9375 C 40.894531 -40.644531 42.421875 -35.515625 42.421875 -28.546875 L 9.796875 -28.546875 L 9.703125 -30.3125 L 33.546875 -30.3125 C 33.671875 -33.332031 33.421875 -36.117188 32.796875 -38.671875 C 32.179688 -41.222656 31.210938 -43.269531 29.890625 -44.8125 C 28.566406 -46.351562 26.859375 -47.125 24.765625 -47.125 C 21.929688 -47.125 19.421875 -45.707031 17.234375 -42.875 C 15.046875 -40.039062 13.738281 -35.546875 13.3125 -29.390625 L 13.578125 -29.015625 C 13.460938 -28.085938 13.375 -27.066406 13.3125 -25.953125 C 13.25 -24.847656 13.21875 -23.742188 13.21875 -22.640625 C 13.21875 -18.453125 13.894531 -14.847656 15.25 -11.828125 C 16.601562 -8.804688 18.375 -6.507812 20.5625 -4.9375 C 22.75 -3.375 25.015625 -2.59375 27.359375 -2.59375 C 29.203125 -2.59375 30.953125 -2.882812 32.609375 -3.46875 C 34.273438 -4.050781 35.816406 -5.019531 37.234375 -6.375 C 38.648438 -7.726562 39.882812 -9.546875 40.9375 -11.828125 L 42.78125 -11.09375 C 42.101562 -9.0625 40.992188 -7.085938 39.453125 -5.171875 C 37.910156 -3.265625 35.96875 -1.707031 33.625 -0.5 C 31.289062 0.695312 28.582031 1.296875 25.5 1.296875 C 21.0625 1.296875 17.253906 0.28125 14.078125 -1.75 C 10.910156 -3.789062 8.476562 -6.609375 6.78125 -10.203125 C 5.09375 -13.804688 4.25 -17.953125 4.25 -22.640625 C 4.25 -28.054688 5.109375 -32.71875 6.828125 -36.625 C 8.554688 -40.539062 10.988281 -43.5625 14.125 -45.6875 C 17.269531 -47.820312 20.941406 -48.890625 25.140625 -48.890625 Z M 25.140625 -48.890625 "/></g></g></g><g fill="#000000" fill-opacity="1"><g transform="translate(441.615235, 91.493454)"><g><path d="M 25.140625 -48.890625 C 30.554688 -48.890625 34.789062 -47.238281 37.84375 -43.9375 C 40.894531 -40.644531 42.421875 -35.515625 42.421875 -28.546875 L 9.796875 -28.546875 L 9.703125 -30.3125 L 33.546875 -30.3125 C 33.671875 -33.332031 33.421875 -36.117188 32.796875 -38.671875 C 32.179688 -41.222656 31.210938 -43.269531 29.890625 -44.8125 C 28.566406 -46.351562 26.859375 -47.125 24.765625 -47.125 C 21.929688 -47.125 19.421875 -45.707031 17.234375 -42.875 C 15.046875 -40.039062 13.738281 -35.546875 13.3125 -29.390625 L 13.578125 -29.015625 C 13.460938 -28.085938 13.375 -27.066406 13.3125 -25.953125 C 13.25 -24.847656 13.21875 -23.742188 13.21875 -22.640625 C 13.21875 -18.453125 13.894531 -14.847656 15.25 -11.828125 C 16.601562 -8.804688 18.375 -6.507812 20.5625 -4.9375 C 22.75 -3.375 25.015625 -2.59375 27.359375 -2.59375 C 29.203125 -2.59375 30.953125 -2.882812 32.609375 -3.46875 C 34.273438 -4.050781 35.816406 -5.019531 37.234375 -6.375 C 38.648438 -7.726562 39.882812 -9.546875 40.9375 -11.828125 L 42.78125 -11.09375 C 42.101562 -9.0625 40.992188 -7.085938 39.453125 -5.171875 C 37.910156 -3.265625 35.96875 -1.707031 33.625 -0.5 C 31.289062 0.695312 28.582031 1.296875 25.5 1.296875 C 21.0625 1.296875 17.253906 0.28125 14.078125 -1.75 C 10.910156 -3.789062 8.476562 -6.609375 6.78125 -10.203125 C 5.09375 -13.804688 4.25 -17.953125 4.25 -22.640625 C 4.25 -28.054688 5.109375 -32.71875 6.828125 -36.625 C 8.554688 -40.539062 10.988281 -43.5625 14.125 -45.6875 C 17.269531 -47.820312 20.941406 -48.890625 25.140625 -48.890625 Z M 25.140625 -48.890625 "/></g></g></g><g fill="#000000" fill-opacity="1"><g transform="translate(503.15517, 91.493454)"><g><path d="M 31.421875 -48.890625 C 33.078125 -48.890625 34.535156 -48.546875 35.796875 -47.859375 C 37.066406 -47.179688 38.054688 -46.300781 38.765625 -45.21875 C 39.472656 -44.144531 39.828125 -42.929688 39.828125 -41.578125 C 39.828125 -40.035156 39.347656 -38.679688 38.390625 -37.515625 C 37.441406 -36.347656 36.164062 -35.765625 34.5625 -35.765625 C 33.269531 -35.765625 32.128906 -36.175781 31.140625 -37 C 30.148438 -37.832031 29.65625 -39.019531 29.65625 -40.5625 C 29.65625 -41.738281 29.976562 -42.738281 30.625 -43.5625 C 31.28125 -44.394531 32.003906 -45.0625 32.796875 -45.5625 C 32.367188 -46.175781 31.722656 -46.484375 30.859375 -46.484375 C 28.953125 -46.484375 27.195312 -45.910156 25.59375 -44.765625 C 23.988281 -43.628906 22.632812 -42.164062 21.53125 -40.375 C 20.425781 -38.59375 19.5625 -36.703125 18.9375 -34.703125 C 18.320312 -32.703125 18.015625 -30.835938 18.015625 -29.109375 L 18.015625 -9.515625 C 18.015625 -6.492188 18.890625 -4.472656 20.640625 -3.453125 C 22.398438 -2.441406 24.789062 -1.9375 27.8125 -1.9375 L 27.8125 0 C 26.394531 -0.0625 24.390625 -0.140625 21.796875 -0.234375 C 19.210938 -0.328125 16.472656 -0.375 13.578125 -0.375 C 11.484375 -0.375 9.40625 -0.328125 7.34375 -0.234375 C 5.28125 -0.140625 3.726562 -0.0625 2.6875 0 L 2.6875 -1.9375 C 5.207031 -1.9375 7.003906 -2.398438 8.078125 -3.328125 C 9.160156 -4.253906 9.703125 -6.007812 9.703125 -8.59375 L 9.703125 -37.515625 C 9.703125 -40.285156 9.207031 -42.332031 8.21875 -43.65625 C 7.238281 -44.988281 5.394531 -45.65625 2.6875 -45.65625 L 2.6875 -47.59375 C 4.65625 -47.40625 6.5625 -47.3125 8.40625 -47.3125 C 10.195312 -47.3125 11.90625 -47.414062 13.53125 -47.625 C 15.164062 -47.84375 16.660156 -48.171875 18.015625 -48.609375 L 18.015625 -37.0625 C 18.691406 -38.84375 19.660156 -40.640625 20.921875 -42.453125 C 22.191406 -44.273438 23.71875 -45.800781 25.5 -47.03125 C 27.289062 -48.269531 29.265625 -48.890625 31.421875 -48.890625 Z M 31.421875 -48.890625 "/></g></g></g><g fill="#000000" fill-opacity="1"><g transform="translate(559.058615, 91.493454)"><g/></g></g><g fill="#000000" fill-opacity="1"><g transform="translate(596.851528, 91.493454)"><g><path d="M 23.65625 -66.4375 C 26.738281 -66.4375 29.078125 -66.082031 30.671875 -65.375 C 32.273438 -64.664062 33.691406 -63.878906 34.921875 -63.015625 C 35.660156 -62.585938 36.257812 -62.265625 36.71875 -62.046875 C 37.1875 -61.835938 37.640625 -61.734375 38.078125 -61.734375 C 38.691406 -61.734375 39.132812 -62.070312 39.40625 -62.75 C 39.6875 -63.425781 39.921875 -64.441406 40.109375 -65.796875 L 42.234375 -65.796875 C 42.171875 -64.742188 42.09375 -63.492188 42 -62.046875 C 41.90625 -60.597656 41.84375 -58.6875 41.8125 -56.3125 C 41.78125 -53.945312 41.765625 -50.820312 41.765625 -46.9375 L 39.640625 -46.9375 C 39.453125 -49.894531 38.800781 -52.726562 37.6875 -55.4375 C 36.582031 -58.15625 34.96875 -60.375 32.84375 -62.09375 C 30.71875 -63.820312 27.929688 -64.6875 24.484375 -64.6875 C 21.222656 -64.6875 18.53125 -63.695312 16.40625 -61.71875 C 14.28125 -59.75 13.21875 -57.164062 13.21875 -53.96875 C 13.21875 -51.195312 13.925781 -48.867188 15.34375 -46.984375 C 16.757812 -45.109375 18.648438 -43.414062 21.015625 -41.90625 C 23.390625 -40.394531 25.960938 -38.78125 28.734375 -37.0625 C 31.941406 -35.082031 34.789062 -33.125 37.28125 -31.1875 C 39.78125 -29.25 41.753906 -27.109375 43.203125 -24.765625 C 44.648438 -22.421875 45.375 -19.585938 45.375 -16.265625 C 45.375 -12.316406 44.476562 -9.050781 42.6875 -6.46875 C 40.90625 -3.882812 38.535156 -1.941406 35.578125 -0.640625 C 32.617188 0.648438 29.351562 1.296875 25.78125 1.296875 C 22.519531 1.296875 19.929688 0.925781 18.015625 0.1875 C 16.109375 -0.550781 14.476562 -1.320312 13.125 -2.125 C 11.769531 -2.988281 10.722656 -3.421875 9.984375 -3.421875 C 9.367188 -3.421875 8.921875 -3.082031 8.640625 -2.40625 C 8.359375 -1.726562 8.128906 -0.710938 7.953125 0.640625 L 5.828125 0.640625 C 5.941406 -0.648438 6.015625 -2.171875 6.046875 -3.921875 C 6.078125 -5.679688 6.109375 -7.976562 6.140625 -10.8125 C 6.171875 -13.644531 6.1875 -17.21875 6.1875 -21.53125 L 8.3125 -21.53125 C 8.5625 -17.832031 9.253906 -14.378906 10.390625 -11.171875 C 11.535156 -7.972656 13.289062 -5.398438 15.65625 -3.453125 C 18.03125 -1.515625 21.191406 -0.546875 25.140625 -0.546875 C 27.171875 -0.546875 29.09375 -0.960938 30.90625 -1.796875 C 32.726562 -2.628906 34.222656 -3.953125 35.390625 -5.765625 C 36.554688 -7.585938 37.140625 -9.945312 37.140625 -12.84375 C 37.140625 -15.375 36.539062 -17.578125 35.34375 -19.453125 C 34.144531 -21.328125 32.46875 -23.082031 30.3125 -24.71875 C 28.15625 -26.351562 25.628906 -28.03125 22.734375 -29.75 C 19.835938 -31.539062 17.125 -33.359375 14.59375 -35.203125 C 12.070312 -37.054688 10.054688 -39.195312 8.546875 -41.625 C 7.035156 -44.0625 6.28125 -47.003906 6.28125 -50.453125 C 6.28125 -54.085938 7.097656 -57.085938 8.734375 -59.453125 C 10.367188 -61.828125 12.507812 -63.582031 15.15625 -64.71875 C 17.800781 -65.863281 20.632812 -66.4375 23.65625 -66.4375 Z M 23.65625 -66.4375 "/></g></g></g><g fill="#000000" fill-opacity="1"><g transform="translate(661.533042, 91.493454)"><g><path d="M 13.203125 -70.6875 C 14.804688 -70.6875 16.191406 -70.097656 17.359375 -68.921875 C 18.535156 -67.753906 19.125 -66.375 19.125 -64.78125 C 19.125 -63.175781 18.535156 -61.785156 17.359375 -60.609375 C 16.191406 -59.441406 14.804688 -58.859375 13.203125 -58.859375 C 11.609375 -58.859375 10.222656 -59.441406 9.046875 -60.609375 C 7.878906 -61.785156 7.296875 -63.175781 7.296875 -64.78125 C 7.296875 -66.375 7.878906 -67.753906 9.046875 -68.921875 C 10.222656 -70.097656 11.609375 -70.6875 13.203125 -70.6875 Z M 18.015625 -48.609375 L 18.015625 -8.59375 C 18.015625 -6.007812 18.550781 -4.253906 19.625 -3.328125 C 20.707031 -2.398438 22.515625 -1.9375 25.046875 -1.9375 L 25.046875 0 C 23.992188 -0.0625 22.40625 -0.140625 20.28125 -0.234375 C 18.15625 -0.328125 16.015625 -0.375 13.859375 -0.375 C 11.765625 -0.375 9.640625 -0.328125 7.484375 -0.234375 C 5.328125 -0.140625 3.726562 -0.0625 2.6875 0 L 2.6875 -1.9375 C 5.207031 -1.9375 7.003906 -2.398438 8.078125 -3.328125 C 9.160156 -4.253906 9.703125 -6.007812 9.703125 -8.59375 L 9.703125 -37.515625 C 9.703125 -40.285156 9.207031 -42.332031 8.21875 -43.65625 C 7.238281 -44.988281 5.394531 -45.65625 2.6875 -45.65625 L 2.6875 -47.59375 C 4.65625 -47.40625 6.5625 -47.3125 8.40625 -47.3125 C 10.195312 -47.3125 11.90625 -47.414062 13.53125 -47.625 C 15.164062 -47.84375 16.660156 -48.171875 18.015625 -48.609375 Z M 18.015625 -48.609375 "/></g></g></g><g fill="#000000" fill-opacity="1"><g transform="translate(703.391613, 91.493454)"><g><path d="M 33.734375 -48.890625 C 36.066406 -48.890625 38.019531 -48.578125 39.59375 -47.953125 C 41.164062 -47.335938 42.472656 -46.476562 43.515625 -45.375 C 44.691406 -44.132812 45.523438 -42.59375 46.015625 -40.75 C 46.503906 -38.90625 46.75 -36.410156 46.75 -33.265625 L 46.75 -8.59375 C 46.75 -6.007812 47.285156 -4.253906 48.359375 -3.328125 C 49.441406 -2.398438 51.25 -1.9375 53.78125 -1.9375 L 53.78125 0 C 52.726562 -0.0625 51.125 -0.140625 48.96875 -0.234375 C 46.8125 -0.328125 44.71875 -0.375 42.6875 -0.375 C 40.65625 -0.375 38.671875 -0.328125 36.734375 -0.234375 C 34.796875 -0.140625 33.332031 -0.0625 32.34375 0 L 32.34375 -1.9375 C 34.5625 -1.9375 36.128906 -2.398438 37.046875 -3.328125 C 37.972656 -4.253906 38.4375 -6.007812 38.4375 -8.59375 L 38.4375 -35.296875 C 38.4375 -37.203125 38.28125 -38.957031 37.96875 -40.5625 C 37.664062 -42.164062 36.972656 -43.457031 35.890625 -44.4375 C 34.816406 -45.425781 33.171875 -45.921875 30.953125 -45.921875 C 28.367188 -45.921875 26.101562 -45.179688 24.15625 -43.703125 C 22.21875 -42.222656 20.707031 -40.207031 19.625 -37.65625 C 18.550781 -35.101562 18.015625 -32.253906 18.015625 -29.109375 L 18.015625 -8.59375 C 18.015625 -6.007812 18.476562 -4.253906 19.40625 -3.328125 C 20.332031 -2.398438 21.90625 -1.9375 24.125 -1.9375 L 24.125 0 C 23.132812 -0.0625 21.664062 -0.140625 19.71875 -0.234375 C 17.78125 -0.328125 15.796875 -0.375 13.765625 -0.375 C 11.734375 -0.375 9.640625 -0.328125 7.484375 -0.234375 C 5.328125 -0.140625 3.726562 -0.0625 2.6875 0 L 2.6875 -1.9375 C 5.207031 -1.9375 7.003906 -2.398438 8.078125 -3.328125 C 9.160156 -4.253906 9.703125 -6.007812 9.703125 -8.59375 L 9.703125 -37.515625 C 9.703125 -40.285156 9.207031 -42.332031 8.21875 -43.65625 C 7.238281 -44.988281 5.394531 -45.65625 2.6875 -45.65625 L 2.6875 -47.59375 C 4.65625 -47.40625 6.5625 -47.3125 8.40625 -47.3125 C 10.195312 -47.3125 11.90625 -47.414062 13.53125 -47.625 C 15.164062 -47.84375 16.660156 -48.171875 18.015625 -48.609375 L 18.015625 -37.703125 C 19.617188 -41.890625 21.851562 -44.800781 24.71875 -46.4375 C 27.582031 -48.070312 30.585938 -48.890625 33.734375 -48.890625 Z M 33.734375 -48.890625 "/></g></g></g><g fill="#000000" fill-opacity="1"><g transform="translate(773.340017, 91.493454)"><g><path d="M 19.6875 17.375 C 16.414062 17.375 13.332031 17.035156 10.4375 16.359375 C 7.539062 15.679688 5.210938 14.617188 3.453125 13.171875 C 1.703125 11.722656 0.828125 9.890625 0.828125 7.671875 C 0.828125 5.515625 1.6875 3.664062 3.40625 2.125 C 5.132812 0.582031 7.476562 -0.585938 10.4375 -1.390625 L 11 0.09375 C 9.644531 0.519531 8.566406 1.378906 7.765625 2.671875 C 6.960938 3.972656 6.5625 5.421875 6.5625 7.015625 C 6.5625 9.859375 7.867188 12.03125 10.484375 13.53125 C 13.109375 15.039062 16.515625 15.796875 20.703125 15.796875 C 23.472656 15.796875 26.179688 15.441406 28.828125 14.734375 C 31.472656 14.023438 33.660156 12.835938 35.390625 11.171875 C 37.117188 9.515625 37.984375 7.332031 37.984375 4.625 C 37.984375 2.59375 37.257812 0.914062 35.8125 -0.40625 C 34.363281 -1.738281 31.515625 -2.40625 27.265625 -2.40625 L 20.421875 -2.40625 C 18.453125 -2.40625 16.539062 -2.554688 14.6875 -2.859375 C 12.84375 -3.171875 11.332031 -3.816406 10.15625 -4.796875 C 8.988281 -5.785156 8.40625 -7.296875 8.40625 -9.328125 C 8.40625 -11.421875 9.265625 -13.4375 10.984375 -15.375 C 12.710938 -17.320312 15.890625 -19.3125 20.515625 -21.34375 L 21.625 -20.515625 C 19.53125 -19.398438 17.710938 -18.273438 16.171875 -17.140625 C 14.628906 -16.003906 13.859375 -14.664062 13.859375 -13.125 C 13.859375 -11.15625 15.335938 -10.171875 18.296875 -10.171875 L 29.84375 -10.171875 C 32.4375 -10.171875 34.828125 -9.800781 37.015625 -9.0625 C 39.203125 -8.320312 40.972656 -7.148438 42.328125 -5.546875 C 43.679688 -3.941406 44.359375 -1.847656 44.359375 0.734375 C 44.359375 3.628906 43.429688 6.335938 41.578125 8.859375 C 39.734375 11.390625 36.976562 13.441406 33.3125 15.015625 C 29.644531 16.585938 25.101562 17.375 19.6875 17.375 Z M 20.140625 -19.6875 C 17.117188 -19.6875 14.375 -20.191406 11.90625 -21.203125 C 9.445312 -22.222656 7.507812 -23.8125 6.09375 -25.96875 C 4.675781 -28.125 3.96875 -30.894531 3.96875 -34.28125 C 3.96875 -37.664062 4.675781 -40.4375 6.09375 -42.59375 C 7.507812 -44.75 9.445312 -46.335938 11.90625 -47.359375 C 14.375 -48.378906 17.117188 -48.890625 20.140625 -48.890625 C 23.222656 -48.890625 25.976562 -48.378906 28.40625 -47.359375 C 30.84375 -46.335938 32.769531 -44.75 34.1875 -42.59375 C 35.601562 -40.4375 36.3125 -37.664062 36.3125 -34.28125 C 36.3125 -30.894531 35.601562 -28.125 34.1875 -25.96875 C 32.769531 -23.8125 30.84375 -22.222656 28.40625 -21.203125 C 25.976562 -20.191406 23.222656 -19.6875 20.140625 -19.6875 Z M 20.140625 -21.34375 C 22.484375 -21.34375 24.316406 -22.265625 25.640625 -24.109375 C 26.960938 -25.960938 27.625 -29.351562 27.625 -34.28125 C 27.625 -39.207031 26.960938 -42.59375 25.640625 -44.4375 C 24.316406 -46.289062 22.484375 -47.21875 20.140625 -47.21875 C 17.859375 -47.21875 16.039062 -46.289062 14.6875 -44.4375 C 13.332031 -42.59375 12.65625 -39.207031 12.65625 -34.28125 C 12.65625 -29.351562 13.332031 -25.960938 14.6875 -24.109375 C 16.039062 -22.265625 17.859375 -21.34375 20.140625 -21.34375 Z M 33.453125 -41.21875 L 31.78125 -41.859375 C 32.644531 -43.953125 34.125 -45.800781 36.21875 -47.40625 C 38.3125 -49.007812 40.5 -49.8125 42.78125 -49.8125 C 44.382812 -49.8125 45.675781 -49.363281 46.65625 -48.46875 C 47.644531 -47.570312 48.140625 -46.234375 48.140625 -44.453125 C 48.140625 -42.535156 47.628906 -41.191406 46.609375 -40.421875 C 45.597656 -39.648438 44.566406 -39.265625 43.515625 -39.265625 C 42.597656 -39.265625 41.738281 -39.585938 40.9375 -40.234375 C 40.132812 -40.890625 39.671875 -41.925781 39.546875 -43.34375 C 39.421875 -44.757812 39.851562 -46.578125 40.84375 -48.796875 L 42.046875 -48.515625 C 39.453125 -47.523438 37.601562 -46.488281 36.5 -45.40625 C 35.394531 -44.332031 34.378906 -42.9375 33.453125 -41.21875 Z M 33.453125 -41.21875 "/></g></g></g><g fill="#000000" fill-opacity="1"><g transform="translate(836.912737, 91.493454)"><g><path d="M 17.1875 -72.359375 L 17.1875 -37.796875 C 18.789062 -41.984375 21.023438 -44.878906 23.890625 -46.484375 C 26.753906 -48.085938 29.753906 -48.890625 32.890625 -48.890625 C 35.234375 -48.890625 37.191406 -48.578125 38.765625 -47.953125 C 40.335938 -47.335938 41.644531 -46.476562 42.6875 -45.375 C 43.863281 -44.132812 44.695312 -42.59375 45.1875 -40.75 C 45.675781 -38.90625 45.921875 -36.410156 45.921875 -33.265625 L 45.921875 -8.59375 C 45.921875 -6.007812 46.457031 -4.253906 47.53125 -3.328125 C 48.613281 -2.398438 50.421875 -1.9375 52.953125 -1.9375 L 52.953125 0 C 51.898438 -0.0625 50.296875 -0.140625 48.140625 -0.234375 C 45.984375 -0.328125 43.890625 -0.375 41.859375 -0.375 C 39.828125 -0.375 37.835938 -0.328125 35.890625 -0.234375 C 33.953125 -0.140625 32.492188 -0.0625 31.515625 0 L 31.515625 -1.9375 C 33.734375 -1.9375 35.300781 -2.398438 36.21875 -3.328125 C 37.144531 -4.253906 37.609375 -6.007812 37.609375 -8.59375 L 37.609375 -35.296875 C 37.609375 -37.203125 37.453125 -38.957031 37.140625 -40.5625 C 36.835938 -42.164062 36.144531 -43.457031 35.0625 -44.4375 C 33.988281 -45.425781 32.34375 -45.921875 30.125 -45.921875 C 27.59375 -45.921875 25.359375 -45.210938 23.421875 -43.796875 C 21.484375 -42.378906 19.957031 -40.40625 18.84375 -37.875 C 17.738281 -35.351562 17.1875 -32.460938 17.1875 -29.203125 L 17.1875 -8.59375 C 17.1875 -6.007812 17.644531 -4.253906 18.5625 -3.328125 C 19.488281 -2.398438 21.0625 -1.9375 23.28125 -1.9375 L 23.28125 0 C 22.300781 -0.0625 20.835938 -0.140625 18.890625 -0.234375 C 16.953125 -0.328125 14.96875 -0.375 12.9375 -0.375 C 10.90625 -0.375 8.8125 -0.328125 6.65625 -0.234375 C 4.5 -0.140625 2.894531 -0.0625 1.84375 0 L 1.84375 -1.9375 C 4.375 -1.9375 6.175781 -2.398438 7.25 -3.328125 C 8.332031 -4.253906 8.875 -6.007812 8.875 -8.59375 L 8.875 -61.265625 C 8.875 -64.035156 8.378906 -66.082031 7.390625 -67.40625 C 6.398438 -68.726562 4.550781 -69.390625 1.84375 -69.390625 L 1.84375 -71.34375 C 3.820312 -71.15625 5.734375 -71.0625 7.578125 -71.0625 C 9.359375 -71.0625 11.066406 -71.164062 12.703125 -71.375 C 14.335938 -71.59375 15.832031 -71.921875 17.1875 -72.359375 Z M 17.1875 -72.359375 "/></g></g></g></svg>