<svg xmlns="http://www.w3.org/2000/svg" xmlns:xlink="http://www.w3.org/1999/xlink" width="1200" zoomAndPan="magnify" viewBox="0 0 900 837.749997" height="1117" preserveAspectRatio="xMidYMid meet" version="1.0"><defs><g/><clipPath id="72bfa228fc"><path d="M 396.792969 706 L 503.421875 706 L 503.421875 728.433594 L 396.792969 728.433594 Z M 396.792969 706 " clip-rule="nonzero"/></clipPath><clipPath id="06c3565297"><path d="M 441 121.144531 L 459 121.144531 L 459 229 L 441 229 Z M 441 121.144531 " clip-rule="nonzero"/></clipPath><clipPath id="2a12b7734f"><path d="M 641.644531 411.523438 L 749.273438 411.523438 L 749.273438 429 L 641.644531 429 Z M 641.644531 411.523438 " clip-rule="nonzero"/></clipPath><clipPath id="fe03870a8e"><path d="M 150.953125 411 L 259 411 L 259 429 L 150.953125 429 Z M 150.953125 411 " clip-rule="nonzero"/></clipPath></defs><g fill="#000000" fill-opacity="1"><g transform="translate(-35.495001, 619.803846)"><g><path d="M 54.453125 -201.472656 C 84.011719 -201.472656 120.574219 -184.359375 120.574219 -112.792969 C 120.574219 -45.894531 92.570312 -10.890625 92.570312 69.230469 C 92.570312 176.582031 158.691406 206.917969 224.03125 206.917969 L 223.253906 199.140625 C 175.804688 199.140625 132.242188 167.246094 132.242188 60.675781 C 132.242188 -8.558594 154.023438 -59.121094 154.023438 -108.90625 C 154.023438 -165.691406 119.015625 -206.917969 79.34375 -209.253906 C 119.015625 -211.585938 154.023438 -252.035156 154.023438 -309.601562 C 154.023438 -359.386719 132.242188 -409.949219 132.242188 -479.179688 C 132.242188 -585.75 175.804688 -617.644531 223.253906 -617.644531 L 224.03125 -625.421875 C 158.691406 -625.421875 92.570312 -595.085938 92.570312 -487.738281 C 92.570312 -404.503906 120.574219 -370.277344 120.574219 -299.488281 C 120.574219 -233.367188 81.679688 -217.03125 54.453125 -217.03125 Z M 54.453125 -201.472656 "/></g></g></g><g fill="#000000" fill-opacity="1"><g transform="translate(680.185452, 619.803846)"><g><path d="M 200.695312 -217.808594 C 173.46875 -217.808594 134.574219 -233.367188 134.574219 -299.488281 C 134.574219 -370.277344 162.578125 -404.503906 162.578125 -487.738281 C 162.578125 -595.085938 95.679688 -625.421875 31.117188 -625.421875 L 31.894531 -617.644531 C 79.34375 -617.644531 122.90625 -585.75 122.90625 -479.179688 C 122.90625 -409.167969 101.125 -357.828125 101.125 -308.042969 C 101.125 -251.257812 135.351562 -211.585938 175.023438 -209.253906 C 135.351562 -206.917969 101.125 -166.46875 101.125 -110.460938 C 101.125 -59.898438 122.90625 -9.335938 122.90625 60.675781 C 122.90625 167.246094 79.34375 199.140625 31.894531 199.140625 L 31.117188 206.917969 C 95.679688 206.917969 162.578125 176.582031 162.578125 69.230469 C 162.578125 -10.890625 134.574219 -45.894531 134.574219 -112.792969 C 134.574219 -184.359375 171.136719 -201.472656 200.695312 -201.472656 Z M 200.695312 -217.808594 "/></g></g></g><path fill="#000000" d="M 450.035156 283.789062 C 418.4375 283.789062 388.6875 295.527344 365.535156 317.289062 C 340.4375 340.882812 326.617188 372.835938 326.617188 407.261719 C 326.617188 435.195312 335.699219 461.523438 352.882812 483.40625 C 376.4375 513.402344 388.886719 548.078125 388.886719 583.703125 L 388.886719 605.425781 C 388.886719 609.070312 391.855469 612.042969 395.511719 612.042969 L 504.890625 612.042969 C 508.191406 612.042969 510.875 609.363281 510.875 606.058594 L 510.875 584.203125 C 510.875 548.289062 523.433594 512.964844 546.246094 484.742188 C 565.558594 460.835938 575.203125 430.664062 573.394531 399.804688 C 569.796875 338.65625 519.09375 287.800781 457.953125 284.03125 C 455.304688 283.871094 452.664062 283.789062 450.035156 283.789062 Z M 504.890625 629.46875 L 395.511719 629.46875 C 382.25 629.46875 371.460938 618.679688 371.460938 605.425781 L 371.460938 583.703125 C 371.460938 552.019531 360.296875 521.058594 339.179688 494.167969 C 319.558594 469.183594 309.1875 439.136719 309.1875 407.261719 C 309.1875 368.550781 325.375 331.125 353.597656 304.59375 C 382.21875 277.691406 419.660156 264.222656 459.027344 266.640625 C 529.972656 271.019531 586.621094 327.828125 590.785156 398.78125 C 592.855469 433.988281 581.851562 468.402344 559.800781 495.6875 C 539.488281 520.828125 528.300781 552.265625 528.300781 584.203125 L 528.300781 606.058594 C 528.300781 618.96875 517.800781 629.46875 504.890625 629.46875 " fill-opacity="1" fill-rule="nonzero"/><path fill="#000000" d="M 510.761719 652.472656 L 389.46875 652.472656 C 384.652344 652.472656 380.753906 648.570312 380.753906 643.757812 C 380.753906 638.949219 384.652344 635.046875 389.46875 635.046875 L 510.761719 635.046875 C 515.570312 635.046875 519.472656 638.949219 519.472656 643.757812 C 519.472656 648.570312 515.570312 652.472656 510.761719 652.472656 " fill-opacity="1" fill-rule="nonzero"/><path fill="#000000" d="M 510.761719 675.703125 L 389.46875 675.703125 C 384.652344 675.703125 380.753906 671.800781 380.753906 666.992188 C 380.753906 662.183594 384.652344 658.28125 389.46875 658.28125 L 510.761719 658.28125 C 515.570312 658.28125 519.472656 662.183594 519.472656 666.992188 C 519.472656 671.800781 515.570312 675.703125 510.761719 675.703125 " fill-opacity="1" fill-rule="nonzero"/><path fill="#000000" d="M 510.761719 698.933594 L 389.46875 698.933594 C 384.652344 698.933594 380.753906 695.03125 380.753906 690.222656 C 380.753906 685.414062 384.652344 681.511719 389.46875 681.511719 L 510.761719 681.511719 C 515.570312 681.511719 519.472656 685.414062 519.472656 690.222656 C 519.472656 695.03125 515.570312 698.933594 510.761719 698.933594 " fill-opacity="1" fill-rule="nonzero"/><g clip-path="url(#72bfa228fc)"><path fill="#000000" d="M 495.582031 728.433594 L 404.640625 728.433594 L 396.902344 706.015625 L 503.324219 706.015625 L 495.582031 728.433594 " fill-opacity="1" fill-rule="nonzero"/></g><g clip-path="url(#06c3565297)"><path fill="#000000" d="M 450.113281 228.730469 C 445.300781 228.730469 441.402344 224.828125 441.402344 220.019531 L 441.402344 129.878906 C 441.402344 125.070312 445.300781 121.171875 450.113281 121.171875 C 454.925781 121.171875 458.828125 125.070312 458.828125 129.878906 L 458.828125 220.019531 C 458.828125 224.828125 454.925781 228.730469 450.113281 228.730469 " fill-opacity="1" fill-rule="nonzero"/></g><path fill="#000000" d="M 591.738281 287.382812 C 589.511719 287.382812 587.28125 286.535156 585.578125 284.832031 C 582.175781 281.433594 582.175781 275.917969 585.578125 272.515625 L 649.328125 208.773438 C 652.734375 205.375 658.25 205.375 661.652344 208.773438 C 665.058594 212.175781 665.058594 217.695312 661.652344 221.09375 L 597.898438 284.832031 C 596.199219 286.535156 593.96875 287.382812 591.738281 287.382812 " fill-opacity="1" fill-rule="nonzero"/><g clip-path="url(#2a12b7734f)"><path fill="#000000" d="M 740.5625 428.984375 L 650.40625 428.984375 C 645.597656 428.984375 641.699219 425.085938 641.699219 420.273438 C 641.699219 415.460938 645.597656 411.5625 650.40625 411.5625 L 740.5625 411.5625 C 745.371094 411.5625 749.273438 415.460938 749.273438 420.273438 C 749.273438 425.085938 745.371094 428.984375 740.5625 428.984375 " fill-opacity="1" fill-rule="nonzero"/></g><path fill="#000000" d="M 655.492188 634.320312 C 653.265625 634.320312 651.035156 633.46875 649.332031 631.769531 L 585.578125 568.03125 C 582.175781 564.628906 582.175781 559.117188 585.578125 555.710938 C 588.984375 552.308594 594.5 552.308594 597.902344 555.710938 L 661.652344 619.449219 C 665.058594 622.851562 665.058594 628.367188 661.652344 631.769531 C 659.949219 633.46875 657.722656 634.320312 655.492188 634.320312 " fill-opacity="1" fill-rule="nonzero"/><path fill="#000000" d="M 244.734375 634.320312 C 242.503906 634.320312 240.277344 633.46875 238.574219 631.769531 C 235.171875 628.367188 235.171875 622.855469 238.574219 619.449219 L 302.324219 555.710938 C 305.730469 552.308594 311.242188 552.308594 314.648438 555.710938 C 318.050781 559.117188 318.050781 564.628906 314.648438 568.03125 L 250.894531 631.769531 C 249.195312 633.46875 246.964844 634.320312 244.734375 634.320312 " fill-opacity="1" fill-rule="nonzero"/><g clip-path="url(#fe03870a8e)"><path fill="#000000" d="M 249.820312 428.984375 L 159.664062 428.984375 C 154.851562 428.984375 150.953125 425.082031 150.953125 420.273438 C 150.953125 415.460938 154.851562 411.558594 159.664062 411.558594 L 249.820312 411.558594 C 254.632812 411.558594 258.535156 415.460938 258.535156 420.273438 C 258.535156 425.082031 254.632812 428.984375 249.820312 428.984375 " fill-opacity="1" fill-rule="nonzero"/></g><path fill="#000000" d="M 308.484375 287.382812 C 306.257812 287.382812 304.027344 286.535156 302.324219 284.832031 L 238.574219 221.09375 C 235.171875 217.695312 235.171875 212.175781 238.574219 208.773438 C 241.976562 205.375 247.492188 205.375 250.894531 208.773438 L 314.648438 272.515625 C 318.050781 275.917969 318.050781 281.433594 314.648438 284.832031 C 312.945312 286.535156 310.714844 287.382812 308.484375 287.382812 " fill-opacity="1" fill-rule="nonzero"/></svg>