<svg xmlns="http://www.w3.org/2000/svg" xmlns:xlink="http://www.w3.org/1999/xlink" width="1200" zoomAndPan="magnify" viewBox="0 0 900 837.749997" height="1117" preserveAspectRatio="xMidYMid meet" version="1.0"><defs><g/><clipPath id="dfc64d25b1"><path d="M 396.792969 700 L 503.421875 700 L 503.421875 722.4375 L 396.792969 722.4375 Z M 396.792969 700 " clip-rule="nonzero"/></clipPath><clipPath id="806f92b07b"><path d="M 441 115.148438 L 459 115.148438 L 459 223 L 441 223 Z M 441 115.148438 " clip-rule="nonzero"/></clipPath><clipPath id="f4c73d9072"><path d="M 641.644531 405.523438 L 749.273438 405.523438 L 749.273438 423 L 641.644531 423 Z M 641.644531 405.523438 " clip-rule="nonzero"/></clipPath><clipPath id="f36bbd6416"><path d="M 150.953125 405 L 259 405 L 259 423 L 150.953125 423 Z M 150.953125 405 " clip-rule="nonzero"/></clipPath></defs><g fill="#ffffff" fill-opacity="1"><g transform="translate(-31.137735, 616.472964)"><g><path d="M 53.964844 -199.664062 C 83.257812 -199.664062 119.492188 -182.707031 119.492188 -111.78125 C 119.492188 -45.484375 91.738281 -10.792969 91.738281 68.609375 C 91.738281 174.996094 157.265625 205.0625 222.023438 205.0625 L 221.25 197.351562 C 174.226562 197.351562 131.054688 165.746094 131.054688 60.128906 C 131.054688 -8.480469 152.640625 -58.589844 152.640625 -107.925781 C 152.640625 -164.203125 117.949219 -205.0625 78.632812 -207.375 C 117.949219 -209.6875 152.640625 -249.773438 152.640625 -306.820312 C 152.640625 -356.160156 131.054688 -406.269531 131.054688 -474.878906 C 131.054688 -580.492188 174.226562 -612.101562 221.25 -612.101562 L 222.023438 -619.808594 C 157.265625 -619.808594 91.738281 -589.746094 91.738281 -483.359375 C 91.738281 -400.871094 119.492188 -366.953125 119.492188 -296.800781 C 119.492188 -231.273438 80.945312 -215.082031 53.964844 -215.082031 Z M 53.964844 -199.664062 "/></g></g></g><g fill="#ffffff" fill-opacity="1"><g transform="translate(678.11962, 616.472964)"><g><path d="M 198.894531 -215.855469 C 171.914062 -215.855469 133.367188 -231.273438 133.367188 -296.800781 C 133.367188 -366.953125 161.121094 -400.871094 161.121094 -483.359375 C 161.121094 -589.746094 94.820312 -619.808594 30.835938 -619.808594 L 31.605469 -612.101562 C 78.632812 -612.101562 121.804688 -580.492188 121.804688 -474.878906 C 121.804688 -405.496094 100.21875 -354.617188 100.21875 -305.28125 C 100.21875 -249.003906 134.136719 -209.6875 173.453125 -207.375 C 134.136719 -205.0625 100.21875 -164.972656 100.21875 -109.46875 C 100.21875 -59.359375 121.804688 -9.25 121.804688 60.128906 C 121.804688 165.746094 78.632812 197.351562 31.605469 197.351562 L 30.835938 205.0625 C 94.820312 205.0625 161.121094 174.996094 161.121094 68.609375 C 161.121094 -10.792969 133.367188 -45.484375 133.367188 -111.78125 C 133.367188 -182.707031 169.601562 -199.664062 198.894531 -199.664062 Z M 198.894531 -215.855469 "/></g></g></g><path fill="#ffffff" d="M 450.035156 277.792969 C 418.4375 277.792969 388.6875 289.527344 365.535156 311.292969 C 340.4375 334.882812 326.617188 366.835938 326.617188 401.261719 C 326.617188 429.195312 335.699219 455.527344 352.882812 477.40625 C 376.4375 507.402344 388.886719 542.082031 388.886719 577.703125 L 388.886719 599.425781 C 388.886719 603.074219 391.855469 606.046875 395.511719 606.046875 L 504.890625 606.046875 C 508.191406 606.046875 510.875 603.363281 510.875 600.0625 L 510.875 578.203125 C 510.875 542.289062 523.433594 506.96875 546.246094 478.746094 C 565.558594 454.839844 575.203125 424.664062 573.394531 393.804688 C 569.796875 332.65625 519.09375 281.804688 457.953125 278.03125 C 455.304688 277.871094 452.664062 277.792969 450.035156 277.792969 Z M 504.890625 623.46875 L 395.511719 623.46875 C 382.25 623.46875 371.460938 612.683594 371.460938 599.425781 L 371.460938 577.703125 C 371.460938 546.023438 360.296875 515.0625 339.179688 488.171875 C 319.558594 463.1875 309.1875 433.140625 309.1875 401.261719 C 309.1875 362.550781 325.375 325.125 353.597656 298.59375 C 382.21875 271.691406 419.660156 258.222656 459.027344 260.644531 C 529.972656 265.019531 586.621094 321.828125 590.785156 392.78125 C 592.855469 427.988281 581.851562 462.40625 559.800781 489.691406 C 539.488281 514.828125 528.300781 546.265625 528.300781 578.203125 L 528.300781 600.0625 C 528.300781 612.972656 517.800781 623.46875 504.890625 623.46875 " fill-opacity="1" fill-rule="nonzero"/><path fill="#ffffff" d="M 510.761719 646.472656 L 389.46875 646.472656 C 384.652344 646.472656 380.753906 642.570312 380.753906 637.761719 C 380.753906 632.953125 384.652344 629.050781 389.46875 629.050781 L 510.761719 629.050781 C 515.570312 629.050781 519.472656 632.953125 519.472656 637.761719 C 519.472656 642.570312 515.570312 646.472656 510.761719 646.472656 " fill-opacity="1" fill-rule="nonzero"/><path fill="#ffffff" d="M 510.761719 669.703125 L 389.46875 669.703125 C 384.652344 669.703125 380.753906 665.800781 380.753906 660.992188 C 380.753906 656.183594 384.652344 652.28125 389.46875 652.28125 L 510.761719 652.28125 C 515.570312 652.28125 519.472656 656.183594 519.472656 660.992188 C 519.472656 665.800781 515.570312 669.703125 510.761719 669.703125 " fill-opacity="1" fill-rule="nonzero"/><path fill="#ffffff" d="M 510.761719 692.9375 L 389.46875 692.9375 C 384.652344 692.9375 380.753906 689.035156 380.753906 684.226562 C 380.753906 679.414062 384.652344 675.511719 389.46875 675.511719 L 510.761719 675.511719 C 515.570312 675.511719 519.472656 679.414062 519.472656 684.226562 C 519.472656 689.035156 515.570312 692.9375 510.761719 692.9375 " fill-opacity="1" fill-rule="nonzero"/><g clip-path="url(#dfc64d25b1)"><path fill="#ffffff" d="M 495.582031 722.4375 L 404.640625 722.4375 L 396.902344 700.019531 L 503.324219 700.019531 L 495.582031 722.4375 " fill-opacity="1" fill-rule="nonzero"/></g><g clip-path="url(#806f92b07b)"><path fill="#ffffff" d="M 450.113281 222.734375 C 445.300781 222.734375 441.402344 218.832031 441.402344 214.023438 L 441.402344 123.882812 C 441.402344 119.074219 445.300781 115.171875 450.113281 115.171875 C 454.925781 115.171875 458.828125 119.074219 458.828125 123.882812 L 458.828125 214.023438 C 458.828125 218.832031 454.925781 222.734375 450.113281 222.734375 " fill-opacity="1" fill-rule="nonzero"/></g><path fill="#ffffff" d="M 591.738281 281.386719 C 589.511719 281.386719 587.28125 280.535156 585.578125 278.835938 C 582.175781 275.433594 582.175781 269.917969 585.578125 266.515625 L 649.328125 202.777344 C 652.734375 199.375 658.25 199.375 661.652344 202.777344 C 665.058594 206.179688 665.058594 211.699219 661.652344 215.097656 L 597.898438 278.835938 C 596.199219 280.535156 593.96875 281.386719 591.738281 281.386719 " fill-opacity="1" fill-rule="nonzero"/><g clip-path="url(#f4c73d9072)"><path fill="#ffffff" d="M 740.5625 422.984375 L 650.40625 422.984375 C 645.597656 422.984375 641.699219 419.085938 641.699219 414.273438 C 641.699219 409.460938 645.597656 405.5625 650.40625 405.5625 L 740.5625 405.5625 C 745.371094 405.5625 749.273438 409.460938 749.273438 414.273438 C 749.273438 419.085938 745.371094 422.984375 740.5625 422.984375 " fill-opacity="1" fill-rule="nonzero"/></g><path fill="#ffffff" d="M 655.492188 628.324219 C 653.265625 628.324219 651.035156 627.472656 649.332031 625.769531 L 585.578125 562.03125 C 582.175781 558.628906 582.175781 553.117188 585.578125 549.714844 C 588.984375 546.3125 594.5 546.3125 597.902344 549.714844 L 661.652344 613.453125 C 665.058594 616.855469 665.058594 622.367188 661.652344 625.769531 C 659.949219 627.472656 657.722656 628.324219 655.492188 628.324219 " fill-opacity="1" fill-rule="nonzero"/><path fill="#ffffff" d="M 244.734375 628.324219 C 242.503906 628.324219 240.277344 627.472656 238.574219 625.773438 C 235.171875 622.367188 235.171875 616.855469 238.574219 613.453125 L 302.324219 549.714844 C 305.730469 546.3125 311.242188 546.3125 314.648438 549.714844 C 318.050781 553.117188 318.050781 558.628906 314.648438 562.03125 L 250.894531 625.773438 C 249.195312 627.472656 246.964844 628.324219 244.734375 628.324219 " fill-opacity="1" fill-rule="nonzero"/><g clip-path="url(#f36bbd6416)"><path fill="#ffffff" d="M 249.820312 422.984375 L 159.664062 422.984375 C 154.851562 422.984375 150.953125 419.085938 150.953125 414.273438 C 150.953125 409.460938 154.851562 405.5625 159.664062 405.5625 L 249.820312 405.5625 C 254.632812 405.5625 258.535156 409.460938 258.535156 414.273438 C 258.535156 419.085938 254.632812 422.984375 249.820312 422.984375 " fill-opacity="1" fill-rule="nonzero"/></g><path fill="#ffffff" d="M 308.484375 281.386719 C 306.257812 281.386719 304.027344 280.535156 302.324219 278.835938 L 238.574219 215.097656 C 235.171875 211.699219 235.171875 206.179688 238.574219 202.777344 C 241.976562 199.375 247.492188 199.375 250.894531 202.777344 L 314.648438 266.515625 C 318.050781 269.917969 318.050781 275.433594 314.648438 278.835938 C 312.945312 280.535156 310.714844 281.386719 308.484375 281.386719 " fill-opacity="1" fill-rule="nonzero"/></svg>