<svg xmlns="http://www.w3.org/2000/svg" xmlns:xlink="http://www.w3.org/1999/xlink" width="1200" zoomAndPan="magnify" viewBox="0 0 900 167.999997" height="224" preserveAspectRatio="xMidYMid meet" version="1.0"><defs><g/><clipPath id="f1d4ad10d5"><path d="M 81.949219 133.539062 L 101.0625 133.539062 L 101.0625 137.5625 L 81.949219 137.5625 Z M 81.949219 133.539062 " clip-rule="nonzero"/></clipPath><clipPath id="0b4ea04f80"><path d="M 89 28.816406 L 94 28.816406 L 94 49 L 89 49 Z M 89 28.816406 " clip-rule="nonzero"/></clipPath><clipPath id="b452d0eb36"><path d="M 125.839844 80.8125 L 145.132812 80.8125 L 145.132812 83.945312 L 125.839844 83.945312 Z M 125.839844 80.8125 " clip-rule="nonzero"/></clipPath><clipPath id="dcbda5e5f3"><path d="M 37.882812 80 L 58 80 L 58 84 L 37.882812 84 Z M 37.882812 80 " clip-rule="nonzero"/></clipPath></defs><g fill="#ffffff" fill-opacity="1"><g transform="translate(4.527656, 119.638181)"><g><path d="M 9.742188 -36.042969 C 15.03125 -36.042969 21.570312 -32.980469 21.570312 -20.179688 C 21.570312 -8.210938 16.5625 -1.949219 16.5625 12.386719 C 16.5625 31.589844 28.390625 37.019531 40.078125 37.019531 L 39.941406 35.625 C 31.453125 35.625 23.65625 29.921875 23.65625 10.855469 C 23.65625 -1.53125 27.554688 -10.578125 27.554688 -19.484375 C 27.554688 -29.640625 21.292969 -37.019531 14.195312 -37.4375 C 21.292969 -37.851562 27.554688 -45.089844 27.554688 -55.386719 C 27.554688 -64.292969 23.65625 -73.339844 23.65625 -85.726562 C 23.65625 -104.792969 31.453125 -110.496094 39.941406 -110.496094 L 40.078125 -111.890625 C 28.390625 -111.890625 16.5625 -106.460938 16.5625 -87.257812 C 16.5625 -72.367188 21.570312 -66.242188 21.570312 -53.578125 C 21.570312 -41.75 14.613281 -38.828125 9.742188 -38.828125 Z M 9.742188 -36.042969 "/></g></g></g><g fill="#ffffff" fill-opacity="1"><g transform="translate(132.564061, 119.638181)"><g><path d="M 35.90625 -38.964844 C 31.035156 -38.964844 24.074219 -41.75 24.074219 -53.578125 C 24.074219 -66.242188 29.085938 -72.367188 29.085938 -87.257812 C 29.085938 -106.460938 17.117188 -111.890625 5.566406 -111.890625 L 5.707031 -110.496094 C 14.195312 -110.496094 21.988281 -104.792969 21.988281 -85.726562 C 21.988281 -73.199219 18.089844 -64.015625 18.089844 -55.109375 C 18.089844 -44.949219 24.214844 -37.851562 31.3125 -37.4375 C 24.214844 -37.019531 18.089844 -29.78125 18.089844 -19.761719 C 18.089844 -10.714844 21.988281 -1.671875 21.988281 10.855469 C 21.988281 29.921875 14.195312 35.625 5.707031 35.625 L 5.566406 37.019531 C 17.117188 37.019531 29.085938 31.589844 29.085938 12.386719 C 29.085938 -1.949219 24.074219 -8.210938 24.074219 -20.179688 C 24.074219 -32.980469 30.617188 -36.042969 35.90625 -36.042969 Z M 35.90625 -38.964844 "/></g></g></g><path fill="#ffffff" d="M 91.492188 57.941406 C 85.832031 57.941406 80.496094 60.042969 76.347656 63.941406 C 71.847656 68.164062 69.371094 73.886719 69.371094 80.050781 C 69.371094 85.054688 71 89.769531 74.078125 93.6875 C 78.300781 99.058594 80.535156 105.265625 80.535156 111.644531 L 80.535156 115.535156 C 80.535156 116.1875 81.066406 116.722656 81.722656 116.722656 L 101.328125 116.722656 C 101.917969 116.722656 102.398438 116.242188 102.398438 115.648438 L 102.398438 111.734375 C 102.398438 105.304688 104.652344 98.980469 108.738281 93.925781 C 112.203125 89.644531 113.929688 84.242188 113.605469 78.714844 C 112.960938 67.765625 103.875 58.660156 92.914062 57.984375 C 92.4375 57.957031 91.964844 57.941406 91.492188 57.941406 Z M 101.328125 119.839844 L 81.722656 119.839844 C 79.34375 119.839844 77.410156 117.910156 77.410156 115.535156 L 77.410156 111.644531 C 77.410156 105.972656 75.410156 100.429688 71.625 95.613281 C 68.105469 91.140625 66.246094 85.757812 66.246094 80.050781 C 66.246094 73.121094 69.148438 66.417969 74.207031 61.667969 C 79.339844 56.847656 86.050781 54.4375 93.105469 54.871094 C 105.824219 55.65625 115.976562 65.828125 116.722656 78.53125 C 117.09375 84.835938 115.121094 91 111.171875 95.886719 C 107.527344 100.386719 105.523438 106.015625 105.523438 111.734375 L 105.523438 115.648438 C 105.523438 117.960938 103.640625 119.839844 101.328125 119.839844 " fill-opacity="1" fill-rule="nonzero"/><path fill="#ffffff" d="M 102.378906 123.960938 L 80.636719 123.960938 C 79.773438 123.960938 79.074219 123.261719 79.074219 122.402344 C 79.074219 121.539062 79.773438 120.839844 80.636719 120.839844 L 102.378906 120.839844 C 103.242188 120.839844 103.941406 121.539062 103.941406 122.402344 C 103.941406 123.261719 103.242188 123.960938 102.378906 123.960938 " fill-opacity="1" fill-rule="nonzero"/><path fill="#ffffff" d="M 102.378906 128.121094 L 80.636719 128.121094 C 79.773438 128.121094 79.074219 127.421875 79.074219 126.5625 C 79.074219 125.699219 79.773438 125 80.636719 125 L 102.378906 125 C 103.242188 125 103.941406 125.699219 103.941406 126.5625 C 103.941406 127.421875 103.242188 128.121094 102.378906 128.121094 " fill-opacity="1" fill-rule="nonzero"/><path fill="#ffffff" d="M 102.378906 132.28125 L 80.636719 132.28125 C 79.773438 132.28125 79.074219 131.582031 79.074219 130.722656 C 79.074219 129.859375 79.773438 129.160156 80.636719 129.160156 L 102.378906 129.160156 C 103.242188 129.160156 103.941406 129.859375 103.941406 130.722656 C 103.941406 131.582031 103.242188 132.28125 102.378906 132.28125 " fill-opacity="1" fill-rule="nonzero"/><g clip-path="url(#f1d4ad10d5)"><path fill="#ffffff" d="M 99.660156 137.5625 L 83.359375 137.5625 L 81.96875 133.546875 L 101.046875 133.546875 L 99.660156 137.5625 " fill-opacity="1" fill-rule="nonzero"/></g><g clip-path="url(#0b4ea04f80)"><path fill="#ffffff" d="M 91.507812 48.082031 C 90.644531 48.082031 89.945312 47.382812 89.945312 46.523438 L 89.945312 30.382812 C 89.945312 29.519531 90.644531 28.820312 91.507812 28.820312 C 92.371094 28.820312 93.070312 29.519531 93.070312 30.382812 L 93.070312 46.523438 C 93.070312 47.382812 92.371094 48.082031 91.507812 48.082031 " fill-opacity="1" fill-rule="nonzero"/></g><path fill="#ffffff" d="M 116.894531 58.585938 C 116.496094 58.585938 116.097656 58.433594 115.789062 58.128906 C 115.179688 57.519531 115.179688 56.53125 115.789062 55.921875 L 127.21875 44.507812 C 127.828125 43.898438 128.816406 43.898438 129.425781 44.507812 C 130.039062 45.117188 130.039062 46.105469 129.425781 46.714844 L 118 58.128906 C 117.695312 58.433594 117.296875 58.585938 116.894531 58.585938 " fill-opacity="1" fill-rule="nonzero"/><g clip-path="url(#b452d0eb36)"><path fill="#ffffff" d="M 143.570312 83.941406 L 127.410156 83.941406 C 126.550781 83.941406 125.851562 83.242188 125.851562 82.382812 C 125.851562 81.519531 126.550781 80.820312 127.410156 80.820312 L 143.570312 80.820312 C 144.433594 80.820312 145.132812 81.519531 145.132812 82.382812 C 145.132812 83.242188 144.433594 83.941406 143.570312 83.941406 " fill-opacity="1" fill-rule="nonzero"/></g><path fill="#ffffff" d="M 128.324219 120.710938 C 127.921875 120.710938 127.523438 120.558594 127.21875 120.253906 L 115.789062 108.839844 C 115.179688 108.230469 115.179688 107.242188 115.789062 106.632812 C 116.402344 106.023438 117.390625 106.023438 118 106.632812 L 129.425781 118.046875 C 130.039062 118.65625 130.039062 119.644531 129.425781 120.253906 C 129.121094 120.558594 128.722656 120.710938 128.324219 120.710938 " fill-opacity="1" fill-rule="nonzero"/><path fill="#ffffff" d="M 54.695312 120.710938 C 54.292969 120.710938 53.894531 120.558594 53.589844 120.253906 C 52.980469 119.644531 52.980469 118.65625 53.589844 118.046875 L 65.015625 106.632812 C 65.628906 106.023438 66.617188 106.023438 67.226562 106.632812 C 67.835938 107.242188 67.835938 108.230469 67.226562 108.839844 L 55.796875 120.253906 C 55.492188 120.558594 55.09375 120.710938 54.695312 120.710938 " fill-opacity="1" fill-rule="nonzero"/><g clip-path="url(#dcbda5e5f3)"><path fill="#ffffff" d="M 55.605469 83.941406 L 39.445312 83.941406 C 38.582031 83.941406 37.882812 83.242188 37.882812 82.382812 C 37.882812 81.519531 38.582031 80.820312 39.445312 80.820312 L 55.605469 80.820312 C 56.46875 80.820312 57.167969 81.519531 57.167969 82.382812 C 57.167969 83.242188 56.46875 83.941406 55.605469 83.941406 " fill-opacity="1" fill-rule="nonzero"/></g><path fill="#ffffff" d="M 66.121094 58.585938 C 65.722656 58.585938 65.320312 58.433594 65.015625 58.128906 L 53.589844 46.714844 C 52.980469 46.105469 52.980469 45.117188 53.589844 44.507812 C 54.199219 43.898438 55.1875 43.898438 55.796875 44.507812 L 67.226562 55.921875 C 67.835938 56.53125 67.835938 57.519531 67.226562 58.128906 C 66.921875 58.433594 66.519531 58.585938 66.121094 58.585938 " fill-opacity="1" fill-rule="nonzero"/><g fill="#ffffff" fill-opacity="1"><g transform="translate(183.988811, 145.444628)"><g><path d="M 9.390625 0 L 4.265625 0 L 4.265625 -37.828125 L 30.46875 -37.828125 L 30.46875 -33.296875 L 9.390625 -33.296875 L 9.390625 -21.71875 L 27.921875 -21.71875 L 27.921875 -17.1875 L 9.390625 -17.1875 Z M 9.390625 0 "/></g></g></g><g fill="#ffffff" fill-opacity="1"><g transform="translate(226.905449, 145.444628)"><g><path d="M 3.21875 -27.5625 L 7.84375 -27.5625 L 7.84375 -9.265625 C 7.84375 -7.242188 8.300781 -5.726562 9.21875 -4.71875 C 10.144531 -3.71875 11.460938 -3.21875 13.171875 -3.21875 C 15.554688 -3.21875 17.414062 -4.0625 18.75 -5.75 C 20.09375 -7.4375 20.765625 -9.644531 20.765625 -12.375 L 20.765625 -27.5625 L 25.40625 -27.5625 L 25.40625 0 L 21.03125 0 L 21.03125 -4.015625 L 20.921875 -4.125 C 19.171875 -0.84375 16.253906 0.796875 12.171875 0.796875 C 9.523438 0.796875 7.367188 0.078125 5.703125 -1.359375 C 4.046875 -2.804688 3.21875 -4.9375 3.21875 -7.75 Z M 3.21875 -27.5625 "/></g></g></g><g fill="#ffffff" fill-opacity="1"><g transform="translate(267.198735, 145.444628)"><g><path d="M 8.109375 0 L 3.46875 0 L 3.46875 -37.828125 L 8.109375 -37.828125 Z M 8.109375 0 "/></g></g></g><g fill="#ffffff" fill-opacity="1"><g transform="translate(290.234463, 145.444628)"><g><path d="M 8.109375 0 L 3.46875 0 L 3.46875 -37.828125 L 8.109375 -37.828125 Z M 8.109375 0 "/></g></g></g><g fill="#ffffff" fill-opacity="1"><g transform="translate(313.270192, 145.444628)"><g><path d="M 19.015625 -19.71875 C 18.953125 -21.363281 18.363281 -22.546875 17.25 -23.265625 C 16.144531 -23.984375 14.554688 -24.34375 12.484375 -24.34375 C 10.972656 -24.34375 9.679688 -24.007812 8.609375 -23.34375 C 7.535156 -22.675781 7 -21.710938 7 -20.453125 C 7 -19.460938 7.316406 -18.726562 7.953125 -18.25 C 8.585938 -17.78125 9.957031 -17.28125 12.0625 -16.75 L 16.65625 -15.59375 C 19.425781 -14.894531 21.40625 -14 22.59375 -12.90625 C 23.789062 -11.8125 24.390625 -10.289062 24.390625 -8.34375 C 24.390625 -5.625 23.398438 -3.421875 21.421875 -1.734375 C 19.441406 -0.046875 16.796875 0.796875 13.484375 0.796875 C 9.617188 0.796875 6.695312 -0.00390625 4.71875 -1.609375 C 2.738281 -3.210938 1.734375 -5.628906 1.703125 -8.859375 L 6.171875 -8.859375 C 6.242188 -6.953125 6.875 -5.535156 8.0625 -4.609375 C 9.257812 -3.679688 11.050781 -3.21875 13.4375 -3.21875 C 15.375 -3.21875 16.910156 -3.601562 18.046875 -4.375 C 19.191406 -5.144531 19.765625 -6.21875 19.765625 -7.59375 C 19.765625 -8.570312 19.394531 -9.351562 18.65625 -9.9375 C 17.914062 -10.519531 16.457031 -11.054688 14.28125 -11.546875 L 8.90625 -12.859375 C 6.726562 -13.410156 5.117188 -14.226562 4.078125 -15.3125 C 3.035156 -16.40625 2.515625 -17.820312 2.515625 -19.5625 C 2.515625 -22.269531 3.484375 -24.410156 5.421875 -25.984375 C 7.367188 -27.566406 9.898438 -28.359375 13.015625 -28.359375 C 16.347656 -28.359375 18.898438 -27.546875 20.671875 -25.921875 C 22.453125 -24.304688 23.394531 -22.238281 23.5 -19.71875 Z M 19.015625 -19.71875 "/></g></g></g><g fill="#ffffff" fill-opacity="1"><g transform="translate(351.042998, 145.444628)"><g><path d="M 9.0625 -23.734375 L 9.0625 -5.796875 C 9.0625 -5.085938 9.253906 -4.546875 9.640625 -4.171875 C 10.023438 -3.804688 10.710938 -3.625 11.703125 -3.625 L 13.484375 -3.625 L 13.484375 0 C 11.804688 0.238281 10.648438 0.359375 10.015625 0.359375 C 8.078125 0.359375 6.660156 -0.101562 5.765625 -1.03125 C 4.867188 -1.957031 4.421875 -3.457031 4.421875 -5.53125 L 4.421875 -23.734375 L 0.6875 -23.734375 L 0.6875 -27.5625 L 4.421875 -27.5625 L 4.421875 -35.25 L 9.0625 -35.25 L 9.0625 -27.5625 L 13.484375 -27.5625 L 13.484375 -23.734375 Z M 9.0625 -23.734375 "/></g></g></g><g fill="#ffffff" fill-opacity="1"><g transform="translate(377.062149, 145.444628)"><g><path d="M 20.234375 -14.078125 C 19.890625 -13.710938 19.210938 -13.414062 18.203125 -13.1875 C 17.203125 -12.96875 15.328125 -12.679688 12.578125 -12.328125 C 10.554688 -12.085938 9.066406 -11.585938 8.109375 -10.828125 C 7.160156 -10.078125 6.6875 -9.082031 6.6875 -7.84375 C 6.6875 -6.332031 7.085938 -5.15625 7.890625 -4.3125 C 8.703125 -3.476562 9.992188 -3.0625 11.765625 -3.0625 C 13.972656 -3.0625 15.9375 -3.691406 17.65625 -4.953125 C 19.375 -6.210938 20.234375 -7.742188 20.234375 -9.546875 Z M 3.265625 -19.171875 C 3.367188 -22.273438 4.375 -24.582031 6.28125 -26.09375 C 8.195312 -27.601562 10.984375 -28.359375 14.640625 -28.359375 C 17.554688 -28.359375 20 -27.695312 21.96875 -26.375 C 23.945312 -25.050781 24.9375 -23.148438 24.9375 -20.671875 L 24.9375 -4.78125 C 24.9375 -3.707031 25.425781 -3.171875 26.40625 -3.171875 C 26.800781 -3.171875 27.304688 -3.238281 27.921875 -3.375 L 27.921875 0 C 27.078125 0.34375 26.203125 0.515625 25.296875 0.515625 C 23.710938 0.515625 22.535156 0.175781 21.765625 -0.5 C 20.992188 -1.175781 20.59375 -2.238281 20.5625 -3.6875 C 17.914062 -0.695312 14.597656 0.796875 10.609375 0.796875 C 7.992188 0.796875 5.894531 0.0625 4.3125 -1.40625 C 2.738281 -2.882812 1.953125 -4.8125 1.953125 -7.1875 C 1.953125 -9.601562 2.640625 -11.554688 4.015625 -13.046875 C 5.390625 -14.535156 7.390625 -15.4375 10.015625 -15.75 L 18.1875 -16.75 C 19.664062 -16.976562 20.40625 -18.066406 20.40625 -20.015625 C 20.40625 -21.460938 19.867188 -22.570312 18.796875 -23.34375 C 17.722656 -24.113281 16.097656 -24.5 13.921875 -24.5 C 11.984375 -24.5 10.492188 -24.066406 9.453125 -23.203125 C 8.421875 -22.347656 7.800781 -21.003906 7.59375 -19.171875 Z M 3.265625 -19.171875 "/></g></g></g><g fill="#ffffff" fill-opacity="1"><g transform="translate(417.432591, 145.444628)"><g><path d="M 20.875 -18.296875 C 20.195312 -22.222656 18.015625 -24.1875 14.328125 -24.1875 C 12.046875 -24.1875 10.210938 -23.269531 8.828125 -21.4375 C 7.441406 -19.613281 6.75 -17.070312 6.75 -13.8125 C 6.75 -10.269531 7.390625 -7.617188 8.671875 -5.859375 C 9.960938 -4.097656 11.832031 -3.21875 14.28125 -3.21875 C 15.925781 -3.21875 17.347656 -3.820312 18.546875 -5.03125 C 19.753906 -6.238281 20.53125 -7.8125 20.875 -9.75 L 25.34375 -9.75 C 24.882812 -6.332031 23.679688 -3.71875 21.734375 -1.90625 C 19.785156 -0.101562 17.265625 0.796875 14.171875 0.796875 C 10.554688 0.796875 7.585938 -0.441406 5.265625 -2.921875 C 2.953125 -5.398438 1.796875 -8.765625 1.796875 -13.015625 C 1.796875 -17.679688 2.953125 -21.40625 5.265625 -24.1875 C 7.585938 -26.96875 10.84375 -28.359375 15.03125 -28.359375 C 18.082031 -28.359375 20.515625 -27.441406 22.328125 -25.609375 C 24.140625 -23.785156 25.144531 -21.347656 25.34375 -18.296875 Z M 20.875 -18.296875 "/></g></g></g><g fill="#ffffff" fill-opacity="1"><g transform="translate(455.874096, 145.444628)"><g><path d="M 26.359375 0 L 20.40625 0 L 11.8125 -13.921875 L 7.953125 -10.453125 L 7.953125 0 L 3.46875 0 L 3.46875 -37.828125 L 7.953125 -37.828125 L 7.953125 -15.90625 L 19.8125 -27.5625 L 25.703125 -27.5625 L 15.1875 -17.296875 Z M 26.359375 0 "/></g></g></g><g fill="#ffffff" fill-opacity="1"><g transform="translate(493.64692, 145.444628)"><g/></g></g><g fill="#ffffff" fill-opacity="1"><g transform="translate(517.94287, 145.444628)"><g><path d="M 9.390625 -4.375 L 19.296875 -4.375 C 22.734375 -4.375 25.421875 -5.691406 27.359375 -8.328125 C 29.296875 -10.960938 30.265625 -14.5625 30.265625 -19.125 C 30.265625 -23.632812 29.285156 -27.140625 27.328125 -29.640625 C 25.367188 -32.148438 22.546875 -33.421875 18.859375 -33.453125 L 9.390625 -33.453125 Z M 4.265625 -37.828125 L 19.609375 -37.828125 C 24.566406 -37.828125 28.445312 -36.125 31.25 -32.71875 C 34.0625 -29.3125 35.46875 -24.890625 35.46875 -19.453125 C 35.46875 -13.617188 34.0625 -8.914062 31.25 -5.34375 C 28.445312 -1.78125 24.5 0 19.40625 0 L 4.265625 0 Z M 4.265625 -37.828125 "/></g></g></g><g fill="#ffffff" fill-opacity="1"><g transform="translate(567.315001, 145.444628)"><g><path d="M 22.390625 -15.984375 C 22.148438 -18.960938 21.359375 -21.070312 20.015625 -22.3125 C 18.679688 -23.5625 16.90625 -24.1875 14.6875 -24.1875 C 12.445312 -24.1875 10.632812 -23.394531 9.25 -21.8125 C 7.875 -20.238281 7.140625 -18.296875 7.046875 -15.984375 Z M 26.8125 -8.640625 C 26.300781 -5.796875 24.90625 -3.4375 22.625 -1.5625 C 20.613281 0.0078125 17.96875 0.8125 14.6875 0.84375 C 10.832031 0.8125 7.769531 -0.445312 5.5 -2.9375 C 3.238281 -5.4375 2.109375 -8.796875 2.109375 -13.015625 C 2.109375 -17.859375 3.273438 -21.625 5.609375 -24.3125 C 7.941406 -27.007812 11.1875 -28.359375 15.34375 -28.359375 C 19.0625 -28.359375 21.96875 -26.96875 24.0625 -24.1875 C 26.15625 -21.40625 27.203125 -17.4375 27.203125 -12.28125 L 7.046875 -12.28125 C 7.046875 -9.394531 7.710938 -7.160156 9.046875 -5.578125 C 10.390625 -4.003906 12.398438 -3.21875 15.078125 -3.21875 C 16.960938 -3.21875 18.582031 -3.785156 19.9375 -4.921875 C 21.300781 -6.066406 22.050781 -7.304688 22.1875 -8.640625 Z M 26.8125 -8.640625 "/></g></g></g><g fill="#ffffff" fill-opacity="1"><g transform="translate(607.942651, 145.444628)"><g><path d="M 20.765625 -27.5625 L 25.84375 -27.5625 L 15.34375 0 L 10.375 0 L 0.3125 -27.5625 L 5.6875 -27.5625 L 12.859375 -5.125 L 12.96875 -5.125 Z M 20.765625 -27.5625 "/></g></g></g><g fill="#ffffff" fill-opacity="1"><g transform="translate(645.509722, 145.444628)"><g><path d="M 22.390625 -15.984375 C 22.148438 -18.960938 21.359375 -21.070312 20.015625 -22.3125 C 18.679688 -23.5625 16.90625 -24.1875 14.6875 -24.1875 C 12.445312 -24.1875 10.632812 -23.394531 9.25 -21.8125 C 7.875 -20.238281 7.140625 -18.296875 7.046875 -15.984375 Z M 26.8125 -8.640625 C 26.300781 -5.796875 24.90625 -3.4375 22.625 -1.5625 C 20.613281 0.0078125 17.96875 0.8125 14.6875 0.84375 C 10.832031 0.8125 7.769531 -0.445312 5.5 -2.9375 C 3.238281 -5.4375 2.109375 -8.796875 2.109375 -13.015625 C 2.109375 -17.859375 3.273438 -21.625 5.609375 -24.3125 C 7.941406 -27.007812 11.1875 -28.359375 15.34375 -28.359375 C 19.0625 -28.359375 21.96875 -26.96875 24.0625 -24.1875 C 26.15625 -21.40625 27.203125 -17.4375 27.203125 -12.28125 L 7.046875 -12.28125 C 7.046875 -9.394531 7.710938 -7.160156 9.046875 -5.578125 C 10.390625 -4.003906 12.398438 -3.21875 15.078125 -3.21875 C 16.960938 -3.21875 18.582031 -3.785156 19.9375 -4.921875 C 21.300781 -6.066406 22.050781 -7.304688 22.1875 -8.640625 Z M 26.8125 -8.640625 "/></g></g></g><g fill="#ffffff" fill-opacity="1"><g transform="translate(686.137372, 145.444628)"><g><path d="M 8.109375 0 L 3.46875 0 L 3.46875 -37.828125 L 8.109375 -37.828125 Z M 8.109375 0 "/></g></g></g><g fill="#ffffff" fill-opacity="1"><g transform="translate(709.173083, 145.444628)"><g><path d="M 6.6875 -13.8125 C 6.6875 -10.75 7.378906 -8.222656 8.765625 -6.234375 C 10.160156 -4.253906 12.132812 -3.265625 14.6875 -3.265625 C 17.332031 -3.265625 19.34375 -4.300781 20.71875 -6.375 C 22.09375 -8.457031 22.78125 -10.9375 22.78125 -13.8125 C 22.78125 -16.726562 22.09375 -19.203125 20.71875 -21.234375 C 19.34375 -23.273438 17.332031 -24.296875 14.6875 -24.296875 C 12.238281 -24.296875 10.289062 -23.335938 8.84375 -21.421875 C 7.40625 -19.503906 6.6875 -16.96875 6.6875 -13.8125 Z M 1.953125 -13.8125 C 1.953125 -17.914062 3.09375 -21.363281 5.375 -24.15625 C 7.65625 -26.957031 10.757812 -28.359375 14.6875 -28.359375 C 18.707031 -28.359375 21.847656 -26.941406 24.109375 -24.109375 C 26.378906 -21.273438 27.515625 -17.84375 27.515625 -13.8125 C 27.515625 -9.769531 26.390625 -6.320312 24.140625 -3.46875 C 21.890625 -0.625 18.738281 0.796875 14.6875 0.796875 C 10.800781 0.796875 7.707031 -0.582031 5.40625 -3.34375 C 3.101562 -6.101562 1.953125 -9.59375 1.953125 -13.8125 Z M 1.953125 -13.8125 "/></g></g></g><g fill="#ffffff" fill-opacity="1"><g transform="translate(750.057889, 145.444628)"><g><path d="M 7.90625 -12.484375 C 7.90625 -9.535156 8.625 -7.253906 10.0625 -5.640625 C 11.5 -4.023438 13.289062 -3.21875 15.4375 -3.21875 C 17.789062 -3.21875 19.617188 -4.171875 20.921875 -6.078125 C 22.222656 -7.992188 22.875 -10.59375 22.875 -13.875 C 22.875 -17.457031 22.25 -20.070312 21 -21.71875 C 19.75 -23.363281 17.863281 -24.1875 15.34375 -24.1875 C 12.882812 -24.1875 11.03125 -23.222656 9.78125 -21.296875 C 8.53125 -19.367188 7.90625 -16.429688 7.90625 -12.484375 Z M 3.46875 -27.5625 L 7.84375 -27.5625 L 7.84375 -23.671875 L 7.953125 -23.671875 C 9.921875 -26.796875 12.664062 -28.359375 16.1875 -28.359375 C 19.738281 -28.359375 22.535156 -27.066406 24.578125 -24.484375 C 26.628906 -21.898438 27.65625 -18.601562 27.65625 -14.59375 C 27.65625 -10.09375 26.609375 -6.398438 24.515625 -3.515625 C 22.429688 -0.640625 19.441406 0.796875 15.546875 0.796875 C 12.347656 0.796875 9.898438 -0.4375 8.203125 -2.90625 L 8.109375 -2.90625 L 8.109375 10.90625 L 3.46875 10.90625 Z M 3.46875 -27.5625 "/></g></g></g><g fill="#ffffff" fill-opacity="1"><g transform="translate(791.251362, 145.444628)"><g><path d="M 22.390625 -15.984375 C 22.148438 -18.960938 21.359375 -21.070312 20.015625 -22.3125 C 18.679688 -23.5625 16.90625 -24.1875 14.6875 -24.1875 C 12.445312 -24.1875 10.632812 -23.394531 9.25 -21.8125 C 7.875 -20.238281 7.140625 -18.296875 7.046875 -15.984375 Z M 26.8125 -8.640625 C 26.300781 -5.796875 24.90625 -3.4375 22.625 -1.5625 C 20.613281 0.0078125 17.96875 0.8125 14.6875 0.84375 C 10.832031 0.8125 7.769531 -0.445312 5.5 -2.9375 C 3.238281 -5.4375 2.109375 -8.796875 2.109375 -13.015625 C 2.109375 -17.859375 3.273438 -21.625 5.609375 -24.3125 C 7.941406 -27.007812 11.1875 -28.359375 15.34375 -28.359375 C 19.0625 -28.359375 21.96875 -26.96875 24.0625 -24.1875 C 26.15625 -21.40625 27.203125 -17.4375 27.203125 -12.28125 L 7.046875 -12.28125 C 7.046875 -9.394531 7.710938 -7.160156 9.046875 -5.578125 C 10.390625 -4.003906 12.398438 -3.21875 15.078125 -3.21875 C 16.960938 -3.21875 18.582031 -3.785156 19.9375 -4.921875 C 21.300781 -6.066406 22.050781 -7.304688 22.1875 -8.640625 Z M 26.8125 -8.640625 "/></g></g></g><g fill="#ffffff" fill-opacity="1"><g transform="translate(831.879012, 145.444628)"><g><path d="M 8.109375 0 L 3.46875 0 L 3.46875 -27.5625 L 7.84375 -27.5625 L 7.84375 -22.984375 L 7.953125 -22.984375 C 9.960938 -26.566406 12.546875 -28.359375 15.703125 -28.359375 C 16.191406 -28.359375 16.59375 -28.304688 16.90625 -28.203125 L 16.90625 -23.390625 L 15.1875 -23.390625 C 13.101562 -23.390625 11.398438 -22.6875 10.078125 -21.28125 C 8.765625 -19.875 8.109375 -18.125 8.109375 -16.03125 Z M 8.109375 0 "/></g></g></g><g fill="#ffffff" fill-opacity="1"><g transform="translate(181.738812, 72.378735)"><g><path d="M 43.5625 -52.09375 C 43.363281 -50.226562 43.226562 -48.425781 43.15625 -46.6875 C 43.082031 -44.945312 43.046875 -43.609375 43.046875 -42.671875 C 43.046875 -41.492188 43.066406 -40.390625 43.109375 -39.359375 C 43.160156 -38.328125 43.210938 -37.421875 43.265625 -36.640625 L 41.578125 -36.640625 C 41.234375 -40.078125 40.765625 -42.785156 40.171875 -44.765625 C 39.585938 -46.753906 38.554688 -48.191406 37.078125 -49.078125 C 35.609375 -49.960938 33.328125 -50.40625 30.234375 -50.40625 L 26.265625 -50.40625 L 26.265625 -8.53125 C 26.265625 -6.570312 26.445312 -5.101562 26.8125 -4.125 C 27.1875 -3.144531 27.910156 -2.484375 28.984375 -2.140625 C 30.066406 -1.796875 31.640625 -1.570312 33.703125 -1.46875 L 33.703125 0 C 32.421875 -0.09375 30.800781 -0.148438 28.84375 -0.171875 C 26.882812 -0.203125 24.894531 -0.21875 22.875 -0.21875 C 20.675781 -0.21875 18.609375 -0.203125 16.671875 -0.171875 C 14.734375 -0.148438 13.175781 -0.09375 12 0 L 12 -1.46875 C 14.050781 -1.570312 15.617188 -1.796875 16.703125 -2.140625 C 17.785156 -2.484375 18.507812 -3.144531 18.875 -4.125 C 19.238281 -5.101562 19.421875 -6.570312 19.421875 -8.53125 L 19.421875 -50.40625 L 15.453125 -50.40625 C 12.410156 -50.40625 10.140625 -49.960938 8.640625 -49.078125 C 7.148438 -48.191406 6.109375 -46.753906 5.515625 -44.765625 C 4.929688 -42.785156 4.46875 -40.078125 4.125 -36.640625 L 2.421875 -36.640625 C 2.523438 -37.421875 2.585938 -38.328125 2.609375 -39.359375 C 2.640625 -40.390625 2.65625 -41.492188 2.65625 -42.671875 C 2.65625 -43.609375 2.613281 -44.945312 2.53125 -46.6875 C 2.457031 -48.425781 2.328125 -50.226562 2.140625 -52.09375 C 4.191406 -52.039062 6.429688 -51.988281 8.859375 -51.9375 C 11.296875 -51.894531 13.738281 -51.875 16.1875 -51.875 C 18.632812 -51.875 20.863281 -51.875 22.875 -51.875 C 24.894531 -51.875 27.117188 -51.875 29.546875 -51.875 C 31.972656 -51.875 34.410156 -51.894531 36.859375 -51.9375 C 39.316406 -51.988281 41.550781 -52.039062 43.5625 -52.09375 Z M 43.5625 -52.09375 "/></g></g></g><g fill="#ffffff" fill-opacity="1"><g transform="translate(239.203233, 72.378735)"><g><path d="M 12.578125 0.515625 C 10.566406 0.515625 8.828125 0.132812 7.359375 -0.625 C 5.890625 -1.382812 4.773438 -2.453125 4.015625 -3.828125 C 3.253906 -5.203125 2.875 -6.796875 2.875 -8.609375 C 2.875 -10.765625 3.375 -12.53125 4.375 -13.90625 C 5.382812 -15.28125 6.671875 -16.382812 8.234375 -17.21875 C 9.804688 -18.050781 11.460938 -18.75 13.203125 -19.3125 C 14.941406 -19.875 16.597656 -20.410156 18.171875 -20.921875 C 19.742188 -21.441406 21.03125 -22.046875 22.03125 -22.734375 C 23.039062 -23.421875 23.546875 -24.328125 23.546875 -25.453125 L 23.546875 -30.015625 C 23.546875 -32.078125 23.238281 -33.644531 22.625 -34.71875 C 22.007812 -35.800781 21.1875 -36.523438 20.15625 -36.890625 C 19.125 -37.265625 17.972656 -37.453125 16.703125 -37.453125 C 15.472656 -37.453125 14.160156 -37.28125 12.765625 -36.9375 C 11.367188 -36.59375 10.253906 -35.878906 9.421875 -34.796875 C 10.347656 -34.609375 11.15625 -34.117188 11.84375 -33.328125 C 12.53125 -32.546875 12.875 -31.539062 12.875 -30.3125 C 12.875 -29.082031 12.476562 -28.113281 11.6875 -27.40625 C 10.90625 -26.695312 9.90625 -26.34375 8.6875 -26.34375 C 7.257812 -26.34375 6.210938 -26.796875 5.546875 -27.703125 C 4.890625 -28.609375 4.5625 -29.625 4.5625 -30.75 C 4.5625 -32.03125 4.878906 -33.0625 5.515625 -33.84375 C 6.148438 -34.625 6.960938 -35.359375 7.953125 -36.046875 C 9.078125 -36.835938 10.535156 -37.515625 12.328125 -38.078125 C 14.117188 -38.640625 16.140625 -38.921875 18.390625 -38.921875 C 20.398438 -38.921875 22.113281 -38.6875 23.53125 -38.21875 C 24.957031 -37.757812 26.140625 -37.085938 27.078125 -36.203125 C 28.347656 -35.023438 29.179688 -33.585938 29.578125 -31.890625 C 29.972656 -30.203125 30.171875 -28.179688 30.171875 -25.828125 L 30.171875 -5.375 C 30.171875 -4.144531 30.351562 -3.257812 30.71875 -2.71875 C 31.082031 -2.175781 31.660156 -1.90625 32.453125 -1.90625 C 32.984375 -1.90625 33.492188 -2.03125 33.984375 -2.28125 C 34.484375 -2.53125 35.078125 -2.921875 35.765625 -3.453125 L 36.5625 -2.203125 C 35.53125 -1.421875 34.550781 -0.769531 33.625 -0.25 C 32.695312 0.257812 31.445312 0.515625 29.875 0.515625 C 28.445312 0.515625 27.265625 0.269531 26.328125 -0.21875 C 25.398438 -0.707031 24.703125 -1.429688 24.234375 -2.390625 C 23.773438 -3.347656 23.546875 -4.5625 23.546875 -6.03125 C 22.222656 -3.820312 20.640625 -2.175781 18.796875 -1.09375 C 16.960938 -0.0195312 14.890625 0.515625 12.578125 0.515625 Z M 15.234375 -2.421875 C 16.847656 -2.421875 18.351562 -2.882812 19.75 -3.8125 C 21.15625 -4.75 22.421875 -6.148438 23.546875 -8.015625 L 23.546875 -22.4375 C 22.953125 -21.601562 22.09375 -20.90625 20.96875 -20.34375 C 19.84375 -19.78125 18.613281 -19.21875 17.28125 -18.65625 C 15.957031 -18.09375 14.695312 -17.429688 13.5 -16.671875 C 12.300781 -15.910156 11.304688 -14.914062 10.515625 -13.6875 C 9.734375 -12.457031 9.34375 -10.863281 9.34375 -8.90625 C 9.34375 -6.9375 9.867188 -5.363281 10.921875 -4.1875 C 11.984375 -3.007812 13.421875 -2.421875 15.234375 -2.421875 Z M 15.234375 -2.421875 "/></g></g></g><g fill="#ffffff" fill-opacity="1"><g transform="translate(287.617717, 72.378735)"><g><path d="M 25.015625 -38.921875 C 26.335938 -38.921875 27.5 -38.648438 28.5 -38.109375 C 29.507812 -37.566406 30.296875 -36.867188 30.859375 -36.015625 C 31.429688 -35.160156 31.71875 -34.191406 31.71875 -33.109375 C 31.71875 -31.878906 31.335938 -30.796875 30.578125 -29.859375 C 29.816406 -28.929688 28.796875 -28.46875 27.515625 -28.46875 C 26.484375 -28.46875 25.578125 -28.800781 24.796875 -29.46875 C 24.015625 -30.132812 23.625 -31.078125 23.625 -32.296875 C 23.625 -33.234375 23.878906 -34.03125 24.390625 -34.6875 C 24.898438 -35.351562 25.476562 -35.882812 26.125 -36.28125 C 25.78125 -36.769531 25.265625 -37.015625 24.578125 -37.015625 C 23.054688 -37.015625 21.65625 -36.554688 20.375 -35.640625 C 19.101562 -34.734375 18.023438 -33.566406 17.140625 -32.140625 C 16.253906 -30.722656 15.566406 -29.21875 15.078125 -27.625 C 14.585938 -26.03125 14.34375 -24.546875 14.34375 -23.171875 L 14.34375 -7.578125 C 14.34375 -5.171875 15.039062 -3.5625 16.4375 -2.75 C 17.84375 -1.945312 19.742188 -1.546875 22.140625 -1.546875 L 22.140625 0 C 21.015625 -0.0507812 19.421875 -0.113281 17.359375 -0.1875 C 15.304688 -0.257812 13.125 -0.296875 10.8125 -0.296875 C 9.144531 -0.296875 7.488281 -0.257812 5.84375 -0.1875 C 4.207031 -0.113281 2.972656 -0.0507812 2.140625 0 L 2.140625 -1.546875 C 4.148438 -1.546875 5.582031 -1.910156 6.4375 -2.640625 C 7.289062 -3.378906 7.71875 -4.78125 7.71875 -6.84375 L 7.71875 -29.875 C 7.71875 -32.082031 7.328125 -33.710938 6.546875 -34.765625 C 5.765625 -35.816406 4.296875 -36.34375 2.140625 -36.34375 L 2.140625 -37.890625 C 3.703125 -37.742188 5.222656 -37.671875 6.703125 -37.671875 C 8.117188 -37.671875 9.476562 -37.753906 10.78125 -37.921875 C 12.082031 -38.097656 13.269531 -38.359375 14.34375 -38.703125 L 14.34375 -29.5 C 14.882812 -30.925781 15.65625 -32.363281 16.65625 -33.8125 C 17.664062 -35.257812 18.878906 -36.472656 20.296875 -37.453125 C 21.722656 -38.429688 23.296875 -38.921875 25.015625 -38.921875 Z M 25.015625 -38.921875 "/></g></g></g><g fill="#ffffff" fill-opacity="1"><g transform="translate(332.132609, 72.378735)"><g><path d="M 12.578125 0.515625 C 10.566406 0.515625 8.828125 0.132812 7.359375 -0.625 C 5.890625 -1.382812 4.773438 -2.453125 4.015625 -3.828125 C 3.253906 -5.203125 2.875 -6.796875 2.875 -8.609375 C 2.875 -10.765625 3.375 -12.53125 4.375 -13.90625 C 5.382812 -15.28125 6.671875 -16.382812 8.234375 -17.21875 C 9.804688 -18.050781 11.460938 -18.75 13.203125 -19.3125 C 14.941406 -19.875 16.597656 -20.410156 18.171875 -20.921875 C 19.742188 -21.441406 21.03125 -22.046875 22.03125 -22.734375 C 23.039062 -23.421875 23.546875 -24.328125 23.546875 -25.453125 L 23.546875 -30.015625 C 23.546875 -32.078125 23.238281 -33.644531 22.625 -34.71875 C 22.007812 -35.800781 21.1875 -36.523438 20.15625 -36.890625 C 19.125 -37.265625 17.972656 -37.453125 16.703125 -37.453125 C 15.472656 -37.453125 14.160156 -37.28125 12.765625 -36.9375 C 11.367188 -36.59375 10.253906 -35.878906 9.421875 -34.796875 C 10.347656 -34.609375 11.15625 -34.117188 11.84375 -33.328125 C 12.53125 -32.546875 12.875 -31.539062 12.875 -30.3125 C 12.875 -29.082031 12.476562 -28.113281 11.6875 -27.40625 C 10.90625 -26.695312 9.90625 -26.34375 8.6875 -26.34375 C 7.257812 -26.34375 6.210938 -26.796875 5.546875 -27.703125 C 4.890625 -28.609375 4.5625 -29.625 4.5625 -30.75 C 4.5625 -32.03125 4.878906 -33.0625 5.515625 -33.84375 C 6.148438 -34.625 6.960938 -35.359375 7.953125 -36.046875 C 9.078125 -36.835938 10.535156 -37.515625 12.328125 -38.078125 C 14.117188 -38.640625 16.140625 -38.921875 18.390625 -38.921875 C 20.398438 -38.921875 22.113281 -38.6875 23.53125 -38.21875 C 24.957031 -37.757812 26.140625 -37.085938 27.078125 -36.203125 C 28.347656 -35.023438 29.179688 -33.585938 29.578125 -31.890625 C 29.972656 -30.203125 30.171875 -28.179688 30.171875 -25.828125 L 30.171875 -5.375 C 30.171875 -4.144531 30.351562 -3.257812 30.71875 -2.71875 C 31.082031 -2.175781 31.660156 -1.90625 32.453125 -1.90625 C 32.984375 -1.90625 33.492188 -2.03125 33.984375 -2.28125 C 34.484375 -2.53125 35.078125 -2.921875 35.765625 -3.453125 L 36.5625 -2.203125 C 35.53125 -1.421875 34.550781 -0.769531 33.625 -0.25 C 32.695312 0.257812 31.445312 0.515625 29.875 0.515625 C 28.445312 0.515625 27.265625 0.269531 26.328125 -0.21875 C 25.398438 -0.707031 24.703125 -1.429688 24.234375 -2.390625 C 23.773438 -3.347656 23.546875 -4.5625 23.546875 -6.03125 C 22.222656 -3.820312 20.640625 -2.175781 18.796875 -1.09375 C 16.960938 -0.0195312 14.890625 0.515625 12.578125 0.515625 Z M 15.234375 -2.421875 C 16.847656 -2.421875 18.351562 -2.882812 19.75 -3.8125 C 21.15625 -4.75 22.421875 -6.148438 23.546875 -8.015625 L 23.546875 -22.4375 C 22.953125 -21.601562 22.09375 -20.90625 20.96875 -20.34375 C 19.84375 -19.78125 18.613281 -19.21875 17.28125 -18.65625 C 15.957031 -18.09375 14.695312 -17.429688 13.5 -16.671875 C 12.300781 -15.910156 11.304688 -14.914062 10.515625 -13.6875 C 9.734375 -12.457031 9.34375 -10.863281 9.34375 -8.90625 C 9.34375 -6.9375 9.867188 -5.363281 10.921875 -4.1875 C 11.984375 -3.007812 13.421875 -2.421875 15.234375 -2.421875 Z M 15.234375 -2.421875 "/></g></g></g><g fill="#ffffff" fill-opacity="1"><g transform="translate(380.547093, 72.378735)"><g><path d="M 26.859375 -38.921875 C 28.722656 -38.921875 30.28125 -38.675781 31.53125 -38.1875 C 32.78125 -37.695312 33.820312 -37.007812 34.65625 -36.125 C 35.582031 -35.144531 36.242188 -33.914062 36.640625 -32.4375 C 37.035156 -30.96875 37.234375 -28.984375 37.234375 -26.484375 L 37.234375 -6.84375 C 37.234375 -4.78125 37.660156 -3.378906 38.515625 -2.640625 C 39.378906 -1.910156 40.816406 -1.546875 42.828125 -1.546875 L 42.828125 0 C 41.992188 -0.0507812 40.71875 -0.113281 39 -0.1875 C 37.28125 -0.257812 35.613281 -0.296875 34 -0.296875 C 32.375 -0.296875 30.785156 -0.257812 29.234375 -0.1875 C 27.691406 -0.113281 26.53125 -0.0507812 25.75 0 L 25.75 -1.546875 C 27.519531 -1.546875 28.769531 -1.910156 29.5 -2.640625 C 30.238281 -3.378906 30.609375 -4.78125 30.609375 -6.84375 L 30.609375 -28.109375 C 30.609375 -29.628906 30.484375 -31.023438 30.234375 -32.296875 C 29.992188 -33.578125 29.441406 -34.609375 28.578125 -35.390625 C 27.722656 -36.171875 26.414062 -36.5625 24.65625 -36.5625 C 22.59375 -36.5625 20.785156 -35.972656 19.234375 -34.796875 C 17.691406 -33.617188 16.488281 -32.007812 15.625 -29.96875 C 14.769531 -27.9375 14.34375 -25.671875 14.34375 -23.171875 L 14.34375 -6.84375 C 14.34375 -4.78125 14.710938 -3.378906 15.453125 -2.640625 C 16.191406 -1.910156 17.441406 -1.546875 19.203125 -1.546875 L 19.203125 0 C 18.421875 -0.0507812 17.253906 -0.113281 15.703125 -0.1875 C 14.160156 -0.257812 12.582031 -0.296875 10.96875 -0.296875 C 9.34375 -0.296875 7.671875 -0.257812 5.953125 -0.1875 C 4.242188 -0.113281 2.972656 -0.0507812 2.140625 0 L 2.140625 -1.546875 C 4.148438 -1.546875 5.582031 -1.910156 6.4375 -2.640625 C 7.289062 -3.378906 7.71875 -4.78125 7.71875 -6.84375 L 7.71875 -29.875 C 7.71875 -32.082031 7.328125 -33.710938 6.546875 -34.765625 C 5.765625 -35.816406 4.296875 -36.34375 2.140625 -36.34375 L 2.140625 -37.890625 C 3.703125 -37.742188 5.222656 -37.671875 6.703125 -37.671875 C 8.117188 -37.671875 9.476562 -37.753906 10.78125 -37.921875 C 12.082031 -38.097656 13.269531 -38.359375 14.34375 -38.703125 L 14.34375 -30.015625 C 15.625 -33.347656 17.40625 -35.664062 19.6875 -36.96875 C 21.96875 -38.269531 24.359375 -38.921875 26.859375 -38.921875 Z M 26.859375 -38.921875 "/></g></g></g><g fill="#ffffff" fill-opacity="1"><g transform="translate(436.245693, 72.378735)"><g><path d="M 35.765625 -37.890625 L 35.765625 -36.421875 C 34.828125 -36.328125 33.960938 -35.910156 33.171875 -35.171875 C 32.390625 -34.429688 31.65625 -33.128906 30.96875 -31.265625 L 18.90625 0.375 C 18.707031 0.375 18.507812 0.375 18.3125 0.375 C 18.125 0.375 17.90625 0.375 17.65625 0.375 L 4.125 -32.234375 C 3.332031 -34.140625 2.554688 -35.300781 1.796875 -35.71875 C 1.035156 -36.132812 0.390625 -36.34375 -0.140625 -36.34375 L -0.140625 -37.890625 C 0.835938 -37.835938 1.851562 -37.773438 2.90625 -37.703125 C 3.957031 -37.628906 5.097656 -37.59375 6.328125 -37.59375 C 7.847656 -37.59375 9.453125 -37.617188 11.140625 -37.671875 C 12.835938 -37.722656 14.421875 -37.796875 15.890625 -37.890625 L 15.890625 -36.34375 C 14.660156 -36.34375 13.566406 -36.253906 12.609375 -36.078125 C 11.660156 -35.910156 11.050781 -35.4375 10.78125 -34.65625 C 10.507812 -33.875 10.742188 -32.523438 11.484375 -30.609375 L 20.671875 -7.875 L 20.234375 -7.5 L 28.625 -29.5 C 29.257812 -31.125 29.515625 -32.410156 29.390625 -33.359375 C 29.265625 -34.316406 28.773438 -35.039062 27.921875 -35.53125 C 27.066406 -36.03125 25.753906 -36.328125 23.984375 -36.421875 L 23.984375 -37.890625 C 24.867188 -37.835938 25.628906 -37.800781 26.265625 -37.78125 C 26.898438 -37.757812 27.523438 -37.734375 28.140625 -37.703125 C 28.753906 -37.679688 29.429688 -37.671875 30.171875 -37.671875 C 31.296875 -37.671875 32.3125 -37.691406 33.21875 -37.734375 C 34.125 -37.785156 34.972656 -37.835938 35.765625 -37.890625 Z M 35.765625 -37.890625 "/></g></g></g><g fill="#ffffff" fill-opacity="1"><g transform="translate(483.997959, 72.378735)"><g><path d="M 20.015625 -38.921875 C 24.328125 -38.921875 27.695312 -37.609375 30.125 -34.984375 C 32.550781 -32.359375 33.765625 -28.273438 33.765625 -22.734375 L 7.796875 -22.734375 L 7.71875 -24.140625 L 26.703125 -24.140625 C 26.804688 -26.535156 26.613281 -28.75 26.125 -30.78125 C 25.632812 -32.820312 24.859375 -34.457031 23.796875 -35.6875 C 22.742188 -36.914062 21.382812 -37.53125 19.71875 -37.53125 C 17.457031 -37.53125 15.457031 -36.398438 13.71875 -34.140625 C 11.976562 -31.878906 10.9375 -28.296875 10.59375 -23.390625 L 10.8125 -23.109375 C 10.71875 -22.367188 10.644531 -21.554688 10.59375 -20.671875 C 10.539062 -19.785156 10.515625 -18.90625 10.515625 -18.03125 C 10.515625 -14.6875 11.054688 -11.8125 12.140625 -9.40625 C 13.222656 -7.007812 14.632812 -5.1875 16.375 -3.9375 C 18.113281 -2.6875 19.914062 -2.0625 21.78125 -2.0625 C 23.25 -2.0625 24.644531 -2.289062 25.96875 -2.75 C 27.289062 -3.21875 28.515625 -3.992188 29.640625 -5.078125 C 30.773438 -6.160156 31.757812 -7.609375 32.59375 -9.421875 L 34.0625 -8.828125 C 33.519531 -7.210938 32.632812 -5.644531 31.40625 -4.125 C 30.1875 -2.601562 28.644531 -1.363281 26.78125 -0.40625 C 24.914062 0.550781 22.757812 1.03125 20.3125 1.03125 C 16.78125 1.03125 13.75 0.222656 11.21875 -1.390625 C 8.695312 -3.015625 6.757812 -5.257812 5.40625 -8.125 C 4.0625 -11 3.390625 -14.300781 3.390625 -18.03125 C 3.390625 -22.34375 4.070312 -26.054688 5.4375 -29.171875 C 6.8125 -32.285156 8.75 -34.6875 11.25 -36.375 C 13.757812 -38.070312 16.679688 -38.921875 20.015625 -38.921875 Z M 20.015625 -38.921875 "/></g></g></g><g fill="#ffffff" fill-opacity="1"><g transform="translate(533.001067, 72.378735)"><g><path d="M 20.015625 -38.921875 C 24.328125 -38.921875 27.695312 -37.609375 30.125 -34.984375 C 32.550781 -32.359375 33.765625 -28.273438 33.765625 -22.734375 L 7.796875 -22.734375 L 7.71875 -24.140625 L 26.703125 -24.140625 C 26.804688 -26.535156 26.613281 -28.75 26.125 -30.78125 C 25.632812 -32.820312 24.859375 -34.457031 23.796875 -35.6875 C 22.742188 -36.914062 21.382812 -37.53125 19.71875 -37.53125 C 17.457031 -37.53125 15.457031 -36.398438 13.71875 -34.140625 C 11.976562 -31.878906 10.9375 -28.296875 10.59375 -23.390625 L 10.8125 -23.109375 C 10.71875 -22.367188 10.644531 -21.554688 10.59375 -20.671875 C 10.539062 -19.785156 10.515625 -18.90625 10.515625 -18.03125 C 10.515625 -14.6875 11.054688 -11.8125 12.140625 -9.40625 C 13.222656 -7.007812 14.632812 -5.1875 16.375 -3.9375 C 18.113281 -2.6875 19.914062 -2.0625 21.78125 -2.0625 C 23.25 -2.0625 24.644531 -2.289062 25.96875 -2.75 C 27.289062 -3.21875 28.515625 -3.992188 29.640625 -5.078125 C 30.773438 -6.160156 31.757812 -7.609375 32.59375 -9.421875 L 34.0625 -8.828125 C 33.519531 -7.210938 32.632812 -5.644531 31.40625 -4.125 C 30.1875 -2.601562 28.644531 -1.363281 26.78125 -0.40625 C 24.914062 0.550781 22.757812 1.03125 20.3125 1.03125 C 16.78125 1.03125 13.75 0.222656 11.21875 -1.390625 C 8.695312 -3.015625 6.757812 -5.257812 5.40625 -8.125 C 4.0625 -11 3.390625 -14.300781 3.390625 -18.03125 C 3.390625 -22.34375 4.070312 -26.054688 5.4375 -29.171875 C 6.8125 -32.285156 8.75 -34.6875 11.25 -36.375 C 13.757812 -38.070312 16.679688 -38.921875 20.015625 -38.921875 Z M 20.015625 -38.921875 "/></g></g></g><g fill="#ffffff" fill-opacity="1"><g transform="translate(582.004176, 72.378735)"><g><path d="M 25.015625 -38.921875 C 26.335938 -38.921875 27.5 -38.648438 28.5 -38.109375 C 29.507812 -37.566406 30.296875 -36.867188 30.859375 -36.015625 C 31.429688 -35.160156 31.71875 -34.191406 31.71875 -33.109375 C 31.71875 -31.878906 31.335938 -30.796875 30.578125 -29.859375 C 29.816406 -28.929688 28.796875 -28.46875 27.515625 -28.46875 C 26.484375 -28.46875 25.578125 -28.800781 24.796875 -29.46875 C 24.015625 -30.132812 23.625 -31.078125 23.625 -32.296875 C 23.625 -33.234375 23.878906 -34.03125 24.390625 -34.6875 C 24.898438 -35.351562 25.476562 -35.882812 26.125 -36.28125 C 25.78125 -36.769531 25.265625 -37.015625 24.578125 -37.015625 C 23.054688 -37.015625 21.65625 -36.554688 20.375 -35.640625 C 19.101562 -34.734375 18.023438 -33.566406 17.140625 -32.140625 C 16.253906 -30.722656 15.566406 -29.21875 15.078125 -27.625 C 14.585938 -26.03125 14.34375 -24.546875 14.34375 -23.171875 L 14.34375 -7.578125 C 14.34375 -5.171875 15.039062 -3.5625 16.4375 -2.75 C 17.84375 -1.945312 19.742188 -1.546875 22.140625 -1.546875 L 22.140625 0 C 21.015625 -0.0507812 19.421875 -0.113281 17.359375 -0.1875 C 15.304688 -0.257812 13.125 -0.296875 10.8125 -0.296875 C 9.144531 -0.296875 7.488281 -0.257812 5.84375 -0.1875 C 4.207031 -0.113281 2.972656 -0.0507812 2.140625 0 L 2.140625 -1.546875 C 4.148438 -1.546875 5.582031 -1.910156 6.4375 -2.640625 C 7.289062 -3.378906 7.71875 -4.78125 7.71875 -6.84375 L 7.71875 -29.875 C 7.71875 -32.082031 7.328125 -33.710938 6.546875 -34.765625 C 5.765625 -35.816406 4.296875 -36.34375 2.140625 -36.34375 L 2.140625 -37.890625 C 3.703125 -37.742188 5.222656 -37.671875 6.703125 -37.671875 C 8.117188 -37.671875 9.476562 -37.753906 10.78125 -37.921875 C 12.082031 -38.097656 13.269531 -38.359375 14.34375 -38.703125 L 14.34375 -29.5 C 14.882812 -30.925781 15.65625 -32.363281 16.65625 -33.8125 C 17.664062 -35.257812 18.878906 -36.472656 20.296875 -37.453125 C 21.722656 -38.429688 23.296875 -38.921875 25.015625 -38.921875 Z M 25.015625 -38.921875 "/></g></g></g><g fill="#ffffff" fill-opacity="1"><g transform="translate(626.519051, 72.378735)"><g/></g></g><g fill="#ffffff" fill-opacity="1"><g transform="translate(656.612846, 72.378735)"><g><path d="M 18.84375 -52.90625 C 21.289062 -52.90625 23.148438 -52.617188 24.421875 -52.046875 C 25.703125 -51.484375 26.832031 -50.863281 27.8125 -50.1875 C 28.40625 -49.84375 28.882812 -49.582031 29.25 -49.40625 C 29.613281 -49.238281 29.96875 -49.15625 30.3125 -49.15625 C 30.800781 -49.15625 31.15625 -49.421875 31.375 -49.953125 C 31.601562 -50.492188 31.789062 -51.304688 31.9375 -52.390625 L 33.625 -52.390625 C 33.570312 -51.554688 33.507812 -50.5625 33.4375 -49.40625 C 33.363281 -48.25 33.3125 -46.726562 33.28125 -44.84375 C 33.257812 -42.957031 33.25 -40.46875 33.25 -37.375 L 31.5625 -37.375 C 31.414062 -39.726562 30.898438 -41.984375 30.015625 -44.140625 C 29.140625 -46.304688 27.851562 -48.070312 26.15625 -49.4375 C 24.46875 -50.8125 22.25 -51.5 19.5 -51.5 C 16.894531 -51.5 14.742188 -50.710938 13.046875 -49.140625 C 11.359375 -47.578125 10.515625 -45.519531 10.515625 -42.96875 C 10.515625 -40.757812 11.078125 -38.90625 12.203125 -37.40625 C 13.335938 -35.914062 14.847656 -34.566406 16.734375 -33.359375 C 18.628906 -32.160156 20.675781 -30.875 22.875 -29.5 C 25.425781 -27.9375 27.695312 -26.378906 29.6875 -24.828125 C 31.675781 -23.285156 33.242188 -21.582031 34.390625 -19.71875 C 35.546875 -17.851562 36.125 -15.597656 36.125 -12.953125 C 36.125 -9.804688 35.410156 -7.203125 33.984375 -5.140625 C 32.566406 -3.085938 30.679688 -1.546875 28.328125 -0.515625 C 25.972656 0.515625 23.375 1.03125 20.53125 1.03125 C 17.925781 1.03125 15.863281 0.734375 14.34375 0.140625 C 12.820312 -0.441406 11.523438 -1.050781 10.453125 -1.6875 C 9.367188 -2.375 8.535156 -2.71875 7.953125 -2.71875 C 7.453125 -2.71875 7.09375 -2.445312 6.875 -1.90625 C 6.65625 -1.375 6.472656 -0.566406 6.328125 0.515625 L 4.640625 0.515625 C 4.734375 -0.515625 4.789062 -1.726562 4.8125 -3.125 C 4.84375 -4.519531 4.867188 -6.347656 4.890625 -8.609375 C 4.921875 -10.867188 4.9375 -13.710938 4.9375 -17.140625 L 6.625 -17.140625 C 6.820312 -14.203125 7.375 -11.457031 8.28125 -8.90625 C 9.1875 -6.351562 10.582031 -4.300781 12.46875 -2.75 C 14.351562 -1.207031 16.867188 -0.4375 20.015625 -0.4375 C 21.628906 -0.4375 23.160156 -0.765625 24.609375 -1.421875 C 26.054688 -2.085938 27.242188 -3.144531 28.171875 -4.59375 C 29.109375 -6.039062 29.578125 -7.921875 29.578125 -10.234375 C 29.578125 -12.242188 29.097656 -13.992188 28.140625 -15.484375 C 27.179688 -16.984375 25.84375 -18.378906 24.125 -19.671875 C 22.414062 -20.972656 20.40625 -22.3125 18.09375 -23.6875 C 15.789062 -25.113281 13.632812 -26.5625 11.625 -28.03125 C 9.613281 -29.5 8.003906 -31.203125 6.796875 -33.140625 C 5.597656 -35.078125 5 -37.421875 5 -40.171875 C 5 -43.066406 5.648438 -45.457031 6.953125 -47.34375 C 8.253906 -49.238281 9.957031 -50.640625 12.0625 -51.546875 C 14.175781 -52.453125 16.4375 -52.90625 18.84375 -52.90625 Z M 18.84375 -52.90625 "/></g></g></g><g fill="#ffffff" fill-opacity="1"><g transform="translate(708.117535, 72.378735)"><g><path d="M 10.515625 -56.28125 C 11.796875 -56.28125 12.898438 -55.8125 13.828125 -54.875 C 14.765625 -53.945312 15.234375 -52.847656 15.234375 -51.578125 C 15.234375 -50.304688 14.765625 -49.203125 13.828125 -48.265625 C 12.898438 -47.335938 11.796875 -46.875 10.515625 -46.875 C 9.242188 -46.875 8.140625 -47.335938 7.203125 -48.265625 C 6.273438 -49.203125 5.8125 -50.304688 5.8125 -51.578125 C 5.8125 -52.847656 6.273438 -53.945312 7.203125 -54.875 C 8.140625 -55.8125 9.242188 -56.28125 10.515625 -56.28125 Z M 14.34375 -38.703125 L 14.34375 -6.84375 C 14.34375 -4.78125 14.769531 -3.378906 15.625 -2.640625 C 16.488281 -1.910156 17.925781 -1.546875 19.9375 -1.546875 L 19.9375 0 C 19.101562 -0.0507812 17.835938 -0.113281 16.140625 -0.1875 C 14.453125 -0.257812 12.75 -0.296875 11.03125 -0.296875 C 9.363281 -0.296875 7.671875 -0.257812 5.953125 -0.1875 C 4.242188 -0.113281 2.972656 -0.0507812 2.140625 0 L 2.140625 -1.546875 C 4.148438 -1.546875 5.582031 -1.910156 6.4375 -2.640625 C 7.289062 -3.378906 7.71875 -4.78125 7.71875 -6.84375 L 7.71875 -29.875 C 7.71875 -32.082031 7.328125 -33.710938 6.546875 -34.765625 C 5.765625 -35.816406 4.296875 -36.34375 2.140625 -36.34375 L 2.140625 -37.890625 C 3.703125 -37.742188 5.222656 -37.671875 6.703125 -37.671875 C 8.117188 -37.671875 9.476562 -37.753906 10.78125 -37.921875 C 12.082031 -38.097656 13.269531 -38.359375 14.34375 -38.703125 Z M 14.34375 -38.703125 "/></g></g></g><g fill="#ffffff" fill-opacity="1"><g transform="translate(741.448738, 72.378735)"><g><path d="M 26.859375 -38.921875 C 28.722656 -38.921875 30.28125 -38.675781 31.53125 -38.1875 C 32.78125 -37.695312 33.820312 -37.007812 34.65625 -36.125 C 35.582031 -35.144531 36.242188 -33.914062 36.640625 -32.4375 C 37.035156 -30.96875 37.234375 -28.984375 37.234375 -26.484375 L 37.234375 -6.84375 C 37.234375 -4.78125 37.660156 -3.378906 38.515625 -2.640625 C 39.378906 -1.910156 40.816406 -1.546875 42.828125 -1.546875 L 42.828125 0 C 41.992188 -0.0507812 40.71875 -0.113281 39 -0.1875 C 37.28125 -0.257812 35.613281 -0.296875 34 -0.296875 C 32.375 -0.296875 30.785156 -0.257812 29.234375 -0.1875 C 27.691406 -0.113281 26.53125 -0.0507812 25.75 0 L 25.75 -1.546875 C 27.519531 -1.546875 28.769531 -1.910156 29.5 -2.640625 C 30.238281 -3.378906 30.609375 -4.78125 30.609375 -6.84375 L 30.609375 -28.109375 C 30.609375 -29.628906 30.484375 -31.023438 30.234375 -32.296875 C 29.992188 -33.578125 29.441406 -34.609375 28.578125 -35.390625 C 27.722656 -36.171875 26.414062 -36.5625 24.65625 -36.5625 C 22.59375 -36.5625 20.785156 -35.972656 19.234375 -34.796875 C 17.691406 -33.617188 16.488281 -32.007812 15.625 -29.96875 C 14.769531 -27.9375 14.34375 -25.671875 14.34375 -23.171875 L 14.34375 -6.84375 C 14.34375 -4.78125 14.710938 -3.378906 15.453125 -2.640625 C 16.191406 -1.910156 17.441406 -1.546875 19.203125 -1.546875 L 19.203125 0 C 18.421875 -0.0507812 17.253906 -0.113281 15.703125 -0.1875 C 14.160156 -0.257812 12.582031 -0.296875 10.96875 -0.296875 C 9.34375 -0.296875 7.671875 -0.257812 5.953125 -0.1875 C 4.242188 -0.113281 2.972656 -0.0507812 2.140625 0 L 2.140625 -1.546875 C 4.148438 -1.546875 5.582031 -1.910156 6.4375 -2.640625 C 7.289062 -3.378906 7.71875 -4.78125 7.71875 -6.84375 L 7.71875 -29.875 C 7.71875 -32.082031 7.328125 -33.710938 6.546875 -34.765625 C 5.765625 -35.816406 4.296875 -36.34375 2.140625 -36.34375 L 2.140625 -37.890625 C 3.703125 -37.742188 5.222656 -37.671875 6.703125 -37.671875 C 8.117188 -37.671875 9.476562 -37.753906 10.78125 -37.921875 C 12.082031 -38.097656 13.269531 -38.359375 14.34375 -38.703125 L 14.34375 -30.015625 C 15.625 -33.347656 17.40625 -35.664062 19.6875 -36.96875 C 21.96875 -38.269531 24.359375 -38.921875 26.859375 -38.921875 Z M 26.859375 -38.921875 "/></g></g></g><g fill="#ffffff" fill-opacity="1"><g transform="translate(797.147354, 72.378735)"><g><path d="M 15.671875 13.828125 C 13.066406 13.828125 10.613281 13.554688 8.3125 13.015625 C 6.007812 12.484375 4.15625 11.640625 2.75 10.484375 C 1.351562 9.328125 0.65625 7.867188 0.65625 6.109375 C 0.65625 4.390625 1.34375 2.914062 2.71875 1.6875 C 4.09375 0.46875 5.957031 -0.460938 8.3125 -1.109375 L 8.75 0.078125 C 7.675781 0.421875 6.816406 1.101562 6.171875 2.125 C 5.535156 3.15625 5.21875 4.3125 5.21875 5.59375 C 5.21875 7.84375 6.257812 9.566406 8.34375 10.765625 C 10.4375 11.972656 13.148438 12.578125 16.484375 12.578125 C 18.691406 12.578125 20.847656 12.296875 22.953125 11.734375 C 25.066406 11.171875 26.804688 10.226562 28.171875 8.90625 C 29.546875 7.582031 30.234375 5.835938 30.234375 3.671875 C 30.234375 2.054688 29.65625 0.722656 28.5 -0.328125 C 27.351562 -1.378906 25.085938 -1.90625 21.703125 -1.90625 L 16.265625 -1.90625 C 14.691406 -1.90625 13.164062 -2.03125 11.6875 -2.28125 C 10.21875 -2.53125 9.019531 -3.046875 8.09375 -3.828125 C 7.164062 -4.609375 6.703125 -5.8125 6.703125 -7.4375 C 6.703125 -9.101562 7.382812 -10.707031 8.75 -12.25 C 10.125 -13.789062 12.648438 -15.375 16.328125 -17 L 17.21875 -16.328125 C 15.550781 -15.453125 14.101562 -14.554688 12.875 -13.640625 C 11.644531 -12.734375 11.03125 -11.671875 11.03125 -10.453125 C 11.03125 -8.878906 12.207031 -8.09375 14.5625 -8.09375 L 23.765625 -8.09375 C 25.828125 -8.09375 27.726562 -7.796875 29.46875 -7.203125 C 31.207031 -6.617188 32.613281 -5.6875 33.6875 -4.40625 C 34.769531 -3.132812 35.3125 -1.46875 35.3125 0.59375 C 35.3125 2.894531 34.578125 5.050781 33.109375 7.0625 C 31.640625 9.070312 29.441406 10.703125 26.515625 11.953125 C 23.597656 13.203125 19.984375 13.828125 15.671875 13.828125 Z M 16.046875 -15.671875 C 13.640625 -15.671875 11.453125 -16.070312 9.484375 -16.875 C 7.523438 -17.6875 5.976562 -18.953125 4.84375 -20.671875 C 3.71875 -22.390625 3.15625 -24.597656 3.15625 -27.296875 C 3.15625 -29.992188 3.71875 -32.203125 4.84375 -33.921875 C 5.976562 -35.640625 7.523438 -36.898438 9.484375 -37.703125 C 11.453125 -38.515625 13.640625 -38.921875 16.046875 -38.921875 C 18.492188 -38.921875 20.6875 -38.515625 22.625 -37.703125 C 24.5625 -36.898438 26.09375 -35.640625 27.21875 -33.921875 C 28.351562 -32.203125 28.921875 -29.992188 28.921875 -27.296875 C 28.921875 -24.597656 28.351562 -22.390625 27.21875 -20.671875 C 26.09375 -18.953125 24.5625 -17.6875 22.625 -16.875 C 20.6875 -16.070312 18.492188 -15.671875 16.046875 -15.671875 Z M 16.046875 -17 C 17.910156 -17 19.367188 -17.734375 20.421875 -19.203125 C 21.472656 -20.671875 22 -23.367188 22 -27.296875 C 22 -31.222656 21.472656 -33.921875 20.421875 -35.390625 C 19.367188 -36.859375 17.910156 -37.59375 16.046875 -37.59375 C 14.222656 -37.59375 12.769531 -36.859375 11.6875 -35.390625 C 10.613281 -33.921875 10.078125 -31.222656 10.078125 -27.296875 C 10.078125 -23.367188 10.613281 -20.671875 11.6875 -19.203125 C 12.769531 -17.734375 14.222656 -17 16.046875 -17 Z M 26.640625 -32.8125 L 25.3125 -33.328125 C 26 -34.992188 27.175781 -36.460938 28.84375 -37.734375 C 30.507812 -39.015625 32.25 -39.65625 34.0625 -39.65625 C 35.34375 -39.65625 36.375 -39.300781 37.15625 -38.59375 C 37.9375 -37.882812 38.328125 -36.816406 38.328125 -35.390625 C 38.328125 -33.867188 37.921875 -32.800781 37.109375 -32.1875 C 36.304688 -31.570312 35.488281 -31.265625 34.65625 -31.265625 C 33.914062 -31.265625 33.226562 -31.519531 32.59375 -32.03125 C 31.957031 -32.550781 31.585938 -33.375 31.484375 -34.5 C 31.390625 -35.632812 31.734375 -37.082031 32.515625 -38.84375 L 33.484375 -38.625 C 31.421875 -37.84375 29.945312 -37.019531 29.0625 -36.15625 C 28.175781 -35.300781 27.367188 -34.1875 26.640625 -32.8125 Z M 26.640625 -32.8125 "/></g></g></g><g fill="#ffffff" fill-opacity="1"><g transform="translate(847.769131, 72.378735)"><g><path d="M 13.6875 -57.609375 L 13.6875 -30.09375 C 14.957031 -33.425781 16.734375 -35.726562 19.015625 -37 C 21.296875 -38.28125 23.6875 -38.921875 26.1875 -38.921875 C 28.050781 -38.921875 29.609375 -38.675781 30.859375 -38.1875 C 32.117188 -37.695312 33.164062 -37.007812 34 -36.125 C 34.925781 -35.144531 35.582031 -33.914062 35.96875 -32.4375 C 36.363281 -30.96875 36.5625 -28.984375 36.5625 -26.484375 L 36.5625 -6.84375 C 36.5625 -4.78125 36.988281 -3.378906 37.84375 -2.640625 C 38.707031 -1.910156 40.144531 -1.546875 42.15625 -1.546875 L 42.15625 0 C 41.320312 -0.0507812 40.046875 -0.113281 38.328125 -0.1875 C 36.617188 -0.257812 34.953125 -0.296875 33.328125 -0.296875 C 31.710938 -0.296875 30.128906 -0.257812 28.578125 -0.1875 C 27.035156 -0.113281 25.875 -0.0507812 25.09375 0 L 25.09375 -1.546875 C 26.851562 -1.546875 28.101562 -1.910156 28.84375 -2.640625 C 29.582031 -3.378906 29.953125 -4.78125 29.953125 -6.84375 L 29.953125 -28.109375 C 29.953125 -29.628906 29.828125 -31.023438 29.578125 -32.296875 C 29.328125 -33.578125 28.773438 -34.609375 27.921875 -35.390625 C 27.066406 -36.171875 25.753906 -36.5625 23.984375 -36.5625 C 21.972656 -36.5625 20.191406 -36 18.640625 -34.875 C 17.097656 -33.75 15.882812 -32.179688 15 -30.171875 C 14.125 -28.160156 13.6875 -25.851562 13.6875 -23.25 L 13.6875 -6.84375 C 13.6875 -4.78125 14.050781 -3.378906 14.78125 -2.640625 C 15.519531 -1.910156 16.773438 -1.546875 18.546875 -1.546875 L 18.546875 0 C 17.753906 -0.0507812 16.585938 -0.113281 15.046875 -0.1875 C 13.503906 -0.257812 11.921875 -0.296875 10.296875 -0.296875 C 8.679688 -0.296875 7.015625 -0.257812 5.296875 -0.1875 C 3.578125 -0.113281 2.300781 -0.0507812 1.46875 0 L 1.46875 -1.546875 C 3.476562 -1.546875 4.910156 -1.910156 5.765625 -2.640625 C 6.628906 -3.378906 7.0625 -4.78125 7.0625 -6.84375 L 7.0625 -48.78125 C 7.0625 -50.988281 6.664062 -52.617188 5.875 -53.671875 C 5.09375 -54.722656 3.625 -55.25 1.46875 -55.25 L 1.46875 -56.796875 C 3.039062 -56.648438 4.5625 -56.578125 6.03125 -56.578125 C 7.457031 -56.578125 8.816406 -56.660156 10.109375 -56.828125 C 11.410156 -57.003906 12.601562 -57.265625 13.6875 -57.609375 Z M 13.6875 -57.609375 "/></g></g></g></svg>