<svg xmlns="http://www.w3.org/2000/svg" xmlns:xlink="http://www.w3.org/1999/xlink" width="500" zoomAndPan="magnify" viewBox="0 0 375 374.999991" height="500" preserveAspectRatio="xMidYMid meet" version="1.0"><defs><g/><clipPath id="4fcc358266"><path d="M 134 90 L 239 90 L 239 201.898438 L 134 201.898438 Z M 134 90 " clip-rule="nonzero"/></clipPath></defs><rect x="-37.5" width="450" fill="#ffffff" y="-37.499999" height="449.999989" fill-opacity="1"/><rect x="-37.5" width="450" fill="#c4bfae" y="-37.499999" height="449.999989" fill-opacity="1"/><g fill="#1d1d1d" fill-opacity="1"><g transform="translate(97.007872, 257.528941)"><g><path d="M 4.179688 -40.601562 C 3.402344 -40.601562 2.984375 -40.183594 2.984375 -39.410156 L 2.984375 -33.675781 C 2.984375 -32.898438 3.402344 -32.480469 4.179688 -32.480469 L 9.523438 -32.480469 C 5.613281 -30.960938 2.984375 -26.839844 2.984375 -20.601562 L 2.984375 -1.195312 C 2.984375 -0.417969 3.402344 0 4.179688 0 L 10.746094 0 C 11.523438 0 11.941406 -0.417969 11.941406 -1.195312 L 11.941406 -22.660156 C 13.375 -19.226562 17.078125 -16.898438 22.691406 -16.898438 L 24.71875 -16.898438 C 25.496094 -16.898438 25.914062 -17.316406 25.914062 -18.09375 L 25.914062 -23.824219 C 25.914062 -24.601562 25.496094 -25.019531 24.71875 -25.019531 L 11.941406 -25.019531 L 11.941406 -32.480469 L 25.316406 -32.480469 C 26.09375 -32.480469 26.511719 -32.898438 26.511719 -33.675781 L 26.511719 -39.410156 C 26.511719 -40.183594 26.09375 -40.601562 25.316406 -40.601562 Z M 4.179688 -40.601562 "/></g></g></g><g fill="#1d1d1d" fill-opacity="1"><g transform="translate(124.949792, 257.528941)"><g><path d="M 10.628906 0 C 11.40625 0 11.824219 -0.417969 11.824219 -1.195312 L 11.824219 -33.4375 C 11.824219 -39.585938 8.65625 -43.589844 2.867188 -44.78125 L 2.867188 -1.195312 C 2.867188 -0.417969 3.285156 0 4.058594 0 Z M 10.628906 0 "/></g></g></g><g fill="#1d1d1d" fill-opacity="1"><g transform="translate(139.696907, 257.528941)"><g><path d="M 6.925781 -31.527344 C 10.152344 -31.527344 13.496094 -33.140625 13.496094 -36.363281 C 13.496094 -39.527344 10.152344 -41.199219 6.925781 -41.199219 C 3.640625 -41.199219 0.359375 -39.527344 0.359375 -36.363281 C 0.359375 -33.140625 3.640625 -31.527344 6.925781 -31.527344 Z M 10.628906 0 C 11.40625 0 11.824219 -0.417969 11.824219 -1.195312 L 11.824219 -15.585938 C 11.824219 -21.734375 8.65625 -25.734375 2.867188 -26.929688 L 2.867188 -1.195312 C 2.867188 -0.417969 3.285156 0 4.058594 0 Z M 10.628906 0 "/></g></g></g><g fill="#1d1d1d" fill-opacity="1"><g transform="translate(154.026103, 257.528941)"><g><path d="M 20.839844 -27.289062 C 16.300781 -27.289062 12.570312 -25.316406 10.269531 -22.003906 C 8.808594 -24.539062 6.300781 -26.210938 2.867188 -26.929688 L 2.867188 2.386719 C 2.867188 10.152344 6.03125 14.332031 11.824219 14.925781 L 11.824219 -2.507812 C 14.089844 -0.296875 17.195312 0.957031 20.839844 0.957031 C 28.601562 0.957031 33.976562 -4.835938 33.976562 -13.195312 C 33.976562 -21.496094 28.601562 -27.289062 20.839844 -27.289062 Z M 18.09375 -6.210938 C 14.449219 -6.210938 11.824219 -9.074219 11.824219 -13.136719 C 11.824219 -17.195312 14.449219 -20.0625 18.09375 -20.0625 C 21.734375 -20.0625 24.363281 -17.195312 24.363281 -13.136719 C 24.363281 -9.074219 21.734375 -6.210938 18.09375 -6.210938 Z M 18.09375 -6.210938 "/></g></g></g><g fill="#1d1d1d" fill-opacity="1"><g transform="translate(189.729663, 257.528941)"><g><path d="M 20.839844 -27.289062 C 16.300781 -27.289062 12.570312 -25.316406 10.269531 -22.003906 C 8.808594 -24.539062 6.300781 -26.210938 2.867188 -26.929688 L 2.867188 2.386719 C 2.867188 10.152344 6.03125 14.332031 11.824219 14.925781 L 11.824219 -2.507812 C 14.089844 -0.296875 17.195312 0.957031 20.839844 0.957031 C 28.601562 0.957031 33.976562 -4.835938 33.976562 -13.195312 C 33.976562 -21.496094 28.601562 -27.289062 20.839844 -27.289062 Z M 18.09375 -6.210938 C 14.449219 -6.210938 11.824219 -9.074219 11.824219 -13.136719 C 11.824219 -17.195312 14.449219 -20.0625 18.09375 -20.0625 C 21.734375 -20.0625 24.363281 -17.195312 24.363281 -13.136719 C 24.363281 -9.074219 21.734375 -6.210938 18.09375 -6.210938 Z M 18.09375 -6.210938 "/></g></g></g><g fill="#1d1d1d" fill-opacity="1"><g transform="translate(225.433224, 257.528941)"><g><path d="M 6.925781 -31.527344 C 10.152344 -31.527344 13.496094 -33.140625 13.496094 -36.363281 C 13.496094 -39.527344 10.152344 -41.199219 6.925781 -41.199219 C 3.640625 -41.199219 0.359375 -39.527344 0.359375 -36.363281 C 0.359375 -33.140625 3.640625 -31.527344 6.925781 -31.527344 Z M 10.628906 0 C 11.40625 0 11.824219 -0.417969 11.824219 -1.195312 L 11.824219 -15.585938 C 11.824219 -21.734375 8.65625 -25.734375 2.867188 -26.929688 L 2.867188 -1.195312 C 2.867188 -0.417969 3.285156 0 4.058594 0 Z M 10.628906 0 "/></g></g></g><g fill="#1d1d1d" fill-opacity="1"><g transform="translate(239.76242, 257.528941)"><g><path d="M 14.6875 -26.332031 L 14.6875 -37.675781 C 8.898438 -36.484375 5.730469 -32.480469 5.730469 -26.332031 L 1.910156 -26.332031 C 1.132812 -26.332031 0.714844 -25.914062 0.714844 -25.136719 L 0.714844 -20.601562 C 0.714844 -19.824219 1.132812 -19.40625 1.910156 -19.40625 L 5.730469 -19.40625 L 5.730469 -1.195312 C 5.730469 -0.417969 6.148438 0 6.925781 0 L 13.496094 0 C 14.269531 0 14.6875 -0.417969 14.6875 -1.195312 L 14.6875 -19.40625 L 18.570312 -19.40625 C 19.347656 -19.40625 19.765625 -19.824219 19.765625 -20.601562 L 19.765625 -25.136719 C 19.765625 -25.914062 19.347656 -26.332031 18.570312 -26.332031 Z M 14.6875 -26.332031 "/></g></g></g><g fill="#1d1d1d" fill-opacity="1"><g transform="translate(260.241209, 257.528941)"><g><path d="M 13.433594 -39.410156 C 13.433594 -40.183594 13.015625 -40.601562 12.242188 -40.601562 L 5.671875 -40.601562 C 4.894531 -40.601562 4.476562 -40.183594 4.476562 -39.410156 L 4.476562 -25.199219 C 4.476562 -17.734375 8.238281 -13.316406 13.433594 -12.71875 Z M 8.957031 0.597656 C 12.179688 0.597656 15.523438 -1.015625 15.523438 -4.238281 C 15.523438 -7.402344 12.179688 -9.074219 8.957031 -9.074219 C 5.671875 -9.074219 2.386719 -7.402344 2.386719 -4.238281 C 2.386719 -1.015625 5.671875 0.597656 8.957031 0.597656 Z M 8.957031 0.597656 "/></g></g></g><g clip-path="url(#4fcc358266)"><path fill="#1d1d1d" d="M 135.222656 147.175781 C 135.3125 148.695312 136.652344 149.769531 138.171875 149.589844 C 139.695312 149.5 140.765625 148.15625 140.585938 146.636719 L 140.050781 140.289062 C 139.605469 135.367188 141.214844 130.628906 144.613281 126.960938 C 148.011719 123.292969 152.574219 121.238281 157.492188 121.238281 C 162.320312 121.238281 166.703125 123.117188 170.101562 126.605469 C 173.410156 130.003906 175.199219 134.5625 175.019531 139.394531 L 174.664062 151.109375 C 170.636719 146.546875 164.734375 144.132812 160.265625 143.148438 L 160.265625 136.53125 C 160.265625 135.011719 159.101562 133.847656 157.582031 133.847656 C 156.058594 133.847656 154.898438 135.011719 154.898438 136.53125 L 154.898438 143.597656 C 152.929688 144.402344 149.53125 145.921875 146.222656 148.335938 C 139.066406 153.433594 135.3125 160.140625 135.402344 167.746094 C 135.402344 169.265625 136.5625 170.429688 138.082031 170.429688 C 139.605469 170.429688 140.765625 169.175781 140.765625 167.746094 C 140.5 155.042969 154.71875 149.230469 157.671875 148.246094 C 160.710938 148.695312 174.039062 151.644531 174.125 164.523438 L 173.5 182.054688 C 173.230469 190.105469 166.703125 196.453125 158.652344 196.453125 C 150.875 196.453125 144.523438 190.640625 143.808594 182.859375 C 143.71875 181.339844 142.375 180.265625 140.855469 180.445312 C 139.335938 180.535156 138.261719 181.875 138.441406 183.394531 C 139.335938 193.949219 148.011719 201.910156 158.652344 201.910156 C 169.65625 201.910156 178.507812 193.324219 178.867188 182.324219 L 180.296875 139.660156 C 180.476562 133.402344 178.242188 127.5 173.859375 123.027344 C 169.476562 118.554688 163.664062 116.050781 157.402344 116.050781 C 150.960938 116.050781 144.878906 118.734375 140.5 123.472656 C 136.207031 128.214844 134.058594 134.5625 134.59375 140.914062 Z M 186.023438 127.5 C 186.558594 128.839844 188.167969 129.554688 189.511719 129.019531 C 190.851562 128.480469 191.566406 126.871094 191.03125 125.53125 L 188.703125 119.539062 C 186.917969 115.066406 187.003906 110.238281 188.972656 105.855469 C 190.941406 101.472656 194.519531 98.164062 198.988281 96.554688 C 203.640625 94.855469 208.648438 95.210938 213.03125 97.445312 C 217.414062 99.773438 220.542969 103.617188 221.886719 108.449219 L 225.105469 120.523438 C 219.738281 117.210938 213.480469 116.320312 209.007812 116.496094 L 206.683594 109.96875 C 206.144531 108.539062 204.625 107.820312 203.28125 108.359375 C 201.851562 108.894531 201.136719 110.414062 201.671875 111.757812 L 204 118.105469 C 199.4375 121.238281 189.152344 130.003906 191.566406 144.757812 C 191.746094 146.101562 192.910156 146.996094 194.25 146.996094 C 194.429688 146.996094 194.519531 146.996094 194.695312 146.996094 C 196.128906 146.726562 197.203125 145.386719 196.933594 143.953125 C 194.785156 130.449219 205.789062 123.292969 208.203125 121.953125 C 209.453125 121.863281 212.941406 121.773438 216.699219 122.757812 C 222.601562 124.277344 226.625 127.855469 228.59375 133.222656 L 233.066406 149.855469 C 235.035156 157.371094 231.097656 165.0625 223.765625 167.65625 C 216.160156 170.429688 207.84375 166.671875 204.804688 159.25 L 202.65625 153.792969 C 202.121094 152.449219 200.511719 151.734375 199.167969 152.273438 C 197.828125 152.808594 197.113281 154.417969 197.648438 155.761719 L 199.796875 161.214844 C 203.015625 169.085938 210.527344 173.914062 218.578125 173.914062 C 220.902344 173.914062 223.226562 173.558594 225.554688 172.664062 C 235.480469 169.085938 240.9375 158.621094 238.164062 148.425781 L 227.164062 107.195312 C 225.554688 101.023438 221.347656 95.746094 215.625 92.796875 C 209.992188 89.84375 203.28125 89.398438 197.203125 91.542969 C 191.296875 93.691406 186.648438 97.984375 184.144531 103.707031 C 181.640625 109.433594 181.460938 115.78125 183.785156 121.59375 Z M 186.023438 127.5 " fill-opacity="1" fill-rule="nonzero"/></g></svg>